ply
format ascii 1.0
element vertex 3852
property float x
property float y
property float z
end_header
68.000 -21.000 22.000
68.000 -21.000 23.000
68.000 -21.000 24.000
68.000 -21.000 25.000
68.000 -21.000 26.000
68.000 -21.000 27.000
68.000 -20.000 21.000
68.000 -20.000 22.000
68.000 -20.000 23.000
68.000 -20.000 24.000
68.000 -20.000 25.000
68.000 -20.000 26.000
68.000 -20.000 27.000
68.000 -20.000 28.000
68.000 -19.000 20.000
68.000 -19.000 21.000
68.000 -19.000 22.000
68.000 -19.000 23.000
68.000 -19.000 24.000
68.000 -19.000 25.000
68.000 -19.000 26.000
68.000 -19.000 27.000
68.000 -19.000 28.000
68.000 -19.000 29.000
68.000 -18.000 20.000
68.000 -18.000 21.000
68.000 -18.000 22.000
68.000 -18.000 23.000
68.000 -18.000 24.000
68.000 -18.000 25.000
68.000 -18.000 26.000
68.000 -18.000 27.000
68.000 -18.000 28.000
68.000 -17.000 19.000
68.000 -17.000 20.000
68.000 -17.000 21.000
68.000 -17.000 22.000
68.000 -17.000 23.000
68.000 -17.000 24.000
68.000 -17.000 25.000
68.000 -17.000 26.000
68.000 -17.000 27.000
68.000 -17.000 28.000
68.000 -16.000 19.000
68.000 -16.000 20.000
68.000 -16.000 21.000
68.000 -16.000 22.000
68.000 -16.000 23.000
68.000 -16.000 24.000
68.000 -16.000 25.000
68.000 -16.000 26.000
68.000 -15.000 20.000
68.000 -15.000 21.000
68.000 -15.000 22.000
68.000 -15.000 23.000
68.000 -15.000 24.000
67.000 -23.000 24.000
67.000 -23.000 25.000
67.000 -23.000 26.000
67.000 -22.000 22.000
67.000 -22.000 23.000
67.000 -22.000 24.000
67.000 -22.000 25.000
67.000 -22.000 26.000
67.000 -22.000 27.000
67.000 -22.000 28.000
67.000 -22.000 29.000
67.000 -21.000 21.000
67.000 -21.000 28.000
67.000 -21.000 29.000
67.000 -21.000 30.000
67.000 -21.000 31.000
67.000 -20.000 20.000
67.000 -20.000 29.000
67.000 -20.000 30.000
67.000 -20.000 31.000
67.000 -19.000 19.000
67.000 -19.000 30.000
67.000 -19.000 31.000
67.000 -18.000 18.000
67.000 -18.000 19.000
67.000 -18.000 29.000
67.000 -18.000 30.000
67.000 -18.000 31.000
67.000 -17.000 17.000
67.000 -17.000 18.000
67.000 -17.000 29.000
67.000 -17.000 30.000
67.000 -17.000 31.000
67.000 -16.000 17.000
67.000 -16.000 18.000
67.000 -16.000 27.000
67.000 -16.000 28.000
67.000 -16.000 29.000
67.000 -16.000 30.000
67.000 -16.000 31.000
67.000 -15.000 17.000
67.000 -15.000 18.000
67.000 -15.000 19.000
67.000 -15.000 25.000
67.000 -15.000 26.000
67.000 -15.000 27.000
67.000 -15.000 28.000
67.000 -15.000 29.000
67.000 -15.000 30.000
67.000 -15.000 31.000
67.000 -14.000 17.000
67.000 -14.000 18.000
67.000 -14.000 19.000
67.000 -14.000 20.000
67.000 -14.000 21.000
67.000 -14.000 22.000
67.000 -14.000 23.000
67.000 -14.000 24.000
67.000 -14.000 25.000
67.000 -14.000 26.000
67.000 -14.000 27.000
67.000 -14.000 28.000
67.000 -14.000 29.000
67.000 -14.000 30.000
67.000 -14.000 31.000
67.000 -13.000 16.000
67.000 -13.000 17.000
67.000 -13.000 18.000
67.000 -13.000 19.000
67.000 -13.000 20.000
67.000 -13.000 21.000
67.000 -13.000 22.000
67.000 -13.000 23.000
67.000 -13.000 24.000
67.000 -13.000 25.000
67.000 -13.000 26.000
67.000 -13.000 27.000
67.000 -13.000 28.000
67.000 -13.000 29.000
67.000 -13.000 30.000
67.000 -12.000 16.000
67.000 -12.000 18.000
67.000 -12.000 19.000
67.000 -12.000 20.000
67.000 -12.000 21.000
67.000 -12.000 22.000
67.000 -12.000 23.000
67.000 -12.000 24.000
67.000 -12.000 25.000
67.000 -12.000 26.000
67.000 -12.000 27.000
67.000 -12.000 28.000
67.000 -12.000 29.000
67.000 -12.000 30.000
67.000 -11.000 16.000
67.000 -11.000 19.000
67.000 -11.000 20.000
67.000 -11.000 21.000
67.000 -11.000 22.000
67.000 -11.000 23.000
67.000 -11.000 27.000
67.000 -11.000 28.000
67.000 -11.000 29.000
67.000 -10.000 20.000
67.000 -10.000 21.000
66.000 -23.000 23.000
66.000 -23.000 24.000
66.000 -23.000 25.000
66.000 -23.000 26.000
66.000 -23.000 27.000
66.000 -22.000 22.000
66.000 -22.000 28.000
66.000 -22.000 29.000
66.000 -22.000 30.000
66.000 -21.000 20.000
66.000 -21.000 21.000
66.000 -21.000 31.000
66.000 -20.000 19.000
66.000 -20.000 31.000
66.000 -19.000 18.000
66.000 -19.000 32.000
66.000 -18.000 18.000
66.000 -18.000 32.000
66.000 -18.000 33.000
66.000 -17.000 17.000
66.000 -17.000 32.000
66.000 -17.000 33.000
66.000 -16.000 16.000
66.000 -16.000 32.000
66.000 -16.000 33.000
66.000 -15.000 16.000
66.000 -15.000 32.000
66.000 -15.000 33.000
66.000 -14.000 16.000
66.000 -14.000 32.000
66.000 -14.000 33.000
66.000 -13.000 16.000
66.000 -13.000 31.000
66.000 -13.000 32.000
66.000 -13.000 33.000
66.000 -12.000 16.000
66.000 -12.000 17.000
66.000 -12.000 31.000
66.000 -12.000 32.000
66.000 -11.000 15.000
66.000 -11.000 17.000
66.000 -11.000 18.000
66.000 -11.000 24.000
66.000 -11.000 25.000
66.000 -11.000 26.000
66.000 -11.000 30.000
66.000 -11.000 31.000
66.000 -11.000 32.000
66.000 -10.000 15.000
66.000 -10.000 16.000
66.000 -10.000 17.000
66.000 -10.000 18.000
66.000 -10.000 19.000
66.000 -10.000 22.000
66.000 -10.000 23.000
66.000 -10.000 24.000
66.000 -10.000 25.000
66.000 -10.000 26.000
66.000 -10.000 27.000
66.000 -10.000 28.000
66.000 -10.000 29.000
66.000 -10.000 30.000
66.000 -10.000 31.000
66.000 -9.000 15.000
66.000 -9.000 16.000
66.000 -9.000 17.000
66.000 -9.000 18.000
66.000 -9.000 19.000
66.000 -9.000 20.000
66.000 -9.000 21.000
66.000 -9.000 22.000
66.000 -9.000 23.000
66.000 -9.000 24.000
66.000 -9.000 25.000
66.000 -9.000 26.000
66.000 -9.000 27.000
66.000 -9.000 28.000
66.000 -9.000 29.000
66.000 -9.000 30.000
66.000 -8.000 15.000
66.000 -8.000 16.000
66.000 -8.000 17.000
66.000 -8.000 18.000
66.000 -8.000 19.000
66.000 -8.000 20.000
66.000 -8.000 21.000
66.000 -8.000 22.000
66.000 -8.000 23.000
66.000 -8.000 24.000
66.000 -8.000 25.000
66.000 -8.000 26.000
66.000 -8.000 27.000
66.000 -8.000 28.000
65.000 -23.000 23.000
65.000 -23.000 24.000
65.000 -23.000 25.000
65.000 -23.000 26.000
65.000 -23.000 27.000
65.000 -22.000 22.000
65.000 -22.000 28.000
65.000 -22.000 29.000
65.000 -21.000 21.000
65.000 -21.000 30.000
65.000 -21.000 31.000
65.000 -21.000 32.000
65.000 -21.000 35.000
65.000 -20.000 19.000
65.000 -20.000 20.000
65.000 -20.000 32.000
65.000 -20.000 33.000
65.000 -20.000 35.000
65.000 -19.000 19.000
65.000 -19.000 33.000
65.000 -18.000 16.000
65.000 -18.000 18.000
65.000 -18.000 34.000
65.000 -17.000 16.000
65.000 -17.000 17.000
65.000 -17.000 34.000
65.000 -16.000 16.000
65.000 -16.000 34.000
65.000 -16.000 35.000
65.000 -15.000 15.000
65.000 -15.000 34.000
65.000 -15.000 35.000
65.000 -14.000 15.000
65.000 -14.000 34.000
65.000 -14.000 35.000
65.000 -13.000 14.000
65.000 -13.000 15.000
65.000 -13.000 34.000
65.000 -13.000 35.000
65.000 -12.000 14.000
65.000 -12.000 15.000
65.000 -12.000 33.000
65.000 -12.000 34.000
65.000 -12.000 35.000
65.000 -11.000 14.000
65.000 -11.000 33.000
65.000 -11.000 34.000
65.000 -10.000 13.000
65.000 -10.000 14.000
65.000 -10.000 32.000
65.000 -10.000 33.000
65.000 -10.000 34.000
65.000 -9.000 13.000
65.000 -9.000 14.000
65.000 -9.000 31.000
65.000 -9.000 32.000
65.000 -9.000 33.000
65.000 -8.000 13.000
65.000 -8.000 14.000
65.000 -8.000 29.000
65.000 -8.000 30.000
65.000 -8.000 31.000
65.000 -8.000 32.000
65.000 -7.000 13.000
65.000 -7.000 14.000
65.000 -7.000 15.000
65.000 -7.000 16.000
65.000 -7.000 17.000
65.000 -7.000 18.000
65.000 -7.000 19.000
65.000 -7.000 20.000
65.000 -7.000 21.000
65.000 -7.000 22.000
65.000 -7.000 23.000
65.000 -7.000 24.000
65.000 -7.000 25.000
65.000 -7.000 26.000
65.000 -7.000 27.000
65.000 -7.000 28.000
65.000 -7.000 29.000
65.000 -7.000 30.000
65.000 -6.000 13.000
65.000 -6.000 14.000
65.000 -6.000 15.000
65.000 -6.000 16.000
65.000 -6.000 17.000
65.000 -6.000 18.000
65.000 -6.000 19.000
65.000 -6.000 20.000
65.000 -6.000 21.000
65.000 -6.000 22.000
65.000 -6.000 23.000
65.000 -6.000 24.000
65.000 -6.000 25.000
65.000 -6.000 26.000
65.000 -5.000 14.000
65.000 -5.000 15.000
65.000 -5.000 16.000
65.000 -5.000 17.000
65.000 -5.000 18.000
65.000 -5.000 19.000
65.000 -5.000 20.000
65.000 -5.000 24.000
65.000 -4.000 14.000
65.000 -4.000 15.000
65.000 -4.000 16.000
65.000 -4.000 17.000
64.000 -23.000 23.000
64.000 -23.000 24.000
64.000 -23.000 25.000
64.000 -23.000 26.000
64.000 -23.000 27.000
64.000 -22.000 22.000
64.000 -22.000 28.000
64.000 -22.000 29.000
64.000 -21.000 21.000
64.000 -21.000 30.000
64.000 -21.000 31.000
64.000 -21.000 32.000
64.000 -21.000 35.000
64.000 -20.000 20.000
64.000 -20.000 33.000
64.000 -20.000 34.000
64.000 -20.000 35.000
64.000 -20.000 39.000
64.000 -19.000 19.000
64.000 -19.000 34.000
64.000 -19.000 39.000
64.000 -18.000 16.000
64.000 -18.000 18.000
64.000 -18.000 34.000
64.000 -17.000 15.000
64.000 -17.000 17.000
64.000 -17.000 34.000
64.000 -16.000 15.000
64.000 -16.000 35.000
64.000 -15.000 16.000
64.000 -15.000 35.000
64.000 -14.000 15.000
64.000 -14.000 36.000
64.000 -13.000 14.000
64.000 -13.000 36.000
64.000 -12.000 14.000
64.000 -12.000 36.000
64.000 -11.000 14.000
64.000 -11.000 35.000
64.000 -11.000 36.000
64.000 -10.000 13.000
64.000 -10.000 35.000
64.000 -10.000 36.000
64.000 -9.000 13.000
64.000 -9.000 34.000
64.000 -9.000 35.000
64.000 -8.000 13.000
64.000 -8.000 33.000
64.000 -8.000 34.000
64.000 -8.000 35.000
64.000 -7.000 13.000
64.000 -7.000 31.000
64.000 -7.000 32.000
64.000 -7.000 33.000
64.000 -7.000 34.000
64.000 -7.000 35.000
64.000 -6.000 12.000
64.000 -6.000 26.000
64.000 -6.000 27.000
64.000 -6.000 28.000
64.000 -6.000 29.000
64.000 -6.000 30.000
64.000 -6.000 31.000
64.000 -6.000 32.000
64.000 -6.000 33.000
64.000 -6.000 34.000
64.000 -6.000 35.000
64.000 -5.000 12.000
64.000 -5.000 13.000
64.000 -5.000 21.000
64.000 -5.000 22.000
64.000 -5.000 23.000
64.000 -5.000 25.000
64.000 -5.000 32.000
64.000 -5.000 33.000
64.000 -5.000 34.000
64.000 -4.000 12.000
64.000 -4.000 13.000
64.000 -4.000 18.000
64.000 -4.000 19.000
64.000 -4.000 20.000
64.000 -4.000 21.000
64.000 -4.000 22.000
64.000 -4.000 23.000
64.000 -4.000 24.000
64.000 -4.000 32.000
64.000 -4.000 33.000
64.000 -3.000 13.000
64.000 -3.000 14.000
64.000 -3.000 15.000
64.000 -3.000 16.000
64.000 -3.000 17.000
64.000 -3.000 18.000
64.000 -3.000 19.000
64.000 -3.000 20.000
64.000 -3.000 21.000
64.000 -3.000 22.000
64.000 -3.000 23.000
64.000 -2.000 13.000
64.000 -2.000 14.000
64.000 -2.000 15.000
64.000 -2.000 16.000
64.000 -2.000 17.000
64.000 -2.000 18.000
64.000 -2.000 19.000
64.000 -2.000 20.000
64.000 -2.000 21.000
64.000 -2.000 22.000
64.000 -1.000 14.000
64.000 -1.000 15.000
64.000 -1.000 16.000
64.000 -1.000 17.000
64.000 -1.000 18.000
64.000 -1.000 19.000
64.000 -1.000 20.000
64.000 -1.000 21.000
64.000 -1.000 22.000
64.000 0.000 15.000
64.000 0.000 16.000
64.000 0.000 17.000
64.000 0.000 18.000
64.000 0.000 19.000
64.000 0.000 20.000
64.000 0.000 21.000
64.000 1.000 17.000
64.000 1.000 18.000
64.000 1.000 19.000
64.000 1.000 20.000
64.000 4.000 18.000
64.000 5.000 18.000
63.000 -23.000 24.000
63.000 -23.000 25.000
63.000 -23.000 26.000
63.000 -22.000 23.000
63.000 -22.000 27.000
63.000 -22.000 28.000
63.000 -21.000 22.000
63.000 -21.000 29.000
63.000 -21.000 31.000
63.000 -21.000 35.000
63.000 -21.000 38.000
63.000 -21.000 39.000
63.000 -20.000 21.000
63.000 -20.000 30.000
63.000 -20.000 32.000
63.000 -20.000 33.000
63.000 -20.000 34.000
63.000 -20.000 35.000
63.000 -20.000 38.000
63.000 -20.000 39.000
63.000 -19.000 19.000
63.000 -19.000 20.000
63.000 -19.000 35.000
63.000 -19.000 38.000
63.000 -19.000 39.000
63.000 -18.000 18.000
63.000 -18.000 35.000
63.000 -17.000 16.000
63.000 -17.000 17.000
63.000 -17.000 34.000
63.000 -16.000 15.000
63.000 -16.000 16.000
63.000 -16.000 33.000
63.000 -16.000 34.000
63.000 -15.000 16.000
63.000 -15.000 32.000
63.000 -15.000 33.000
63.000 -15.000 34.000
63.000 -15.000 40.000
63.000 -15.000 41.000
63.000 -14.000 15.000
63.000 -14.000 35.000
63.000 -14.000 38.000
63.000 -14.000 39.000
63.000 -14.000 40.000
63.000 -14.000 41.000
63.000 -14.000 42.000
63.000 -13.000 14.000
63.000 -13.000 36.000
63.000 -13.000 38.000
63.000 -13.000 39.000
63.000 -13.000 40.000
63.000 -13.000 41.000
63.000 -13.000 42.000
63.000 -12.000 14.000
63.000 -12.000 37.000
63.000 -12.000 38.000
63.000 -12.000 39.000
63.000 -12.000 40.000
63.000 -12.000 41.000
63.000 -12.000 42.000
63.000 -11.000 14.000
63.000 -11.000 37.000
63.000 -11.000 38.000
63.000 -11.000 39.000
63.000 -10.000 13.000
63.000 -10.000 36.000
63.000 -10.000 38.000
63.000 -9.000 13.000
63.000 -9.000 36.000
63.000 -8.000 13.000
63.000 -8.000 36.000
63.000 -7.000 13.000
63.000 -7.000 36.000
63.000 -6.000 12.000
63.000 -6.000 28.000
63.000 -6.000 29.000
63.000 -6.000 30.000
63.000 -6.000 36.000
63.000 -5.000 12.000
63.000 -5.000 26.000
63.000 -5.000 27.000
63.000 -5.000 31.000
63.000 -5.000 35.000
63.000 -5.000 36.000
63.000 -4.000 12.000
63.000 -4.000 25.000
63.000 -4.000 26.000
63.000 -4.000 27.000
63.000 -4.000 31.000
63.000 -4.000 34.000
63.000 -4.000 35.000
63.000 -4.000 36.000
63.000 -3.000 12.000
63.000 -3.000 24.000
63.000 -3.000 31.000
63.000 -3.000 32.000
63.000 -3.000 33.000
63.000 -3.000 34.000
63.000 -3.000 35.000
63.000 -3.000 36.000
63.000 -2.000 12.000
63.000 -2.000 23.000
63.000 -2.000 30.000
63.000 -2.000 31.000
63.000 -2.000 32.000
63.000 -2.000 33.000
63.000 -2.000 34.000
63.000 -2.000 35.000
63.000 -2.000 36.000
63.000 -1.000 13.000
63.000 -1.000 22.000
63.000 -1.000 30.000
63.000 -1.000 31.000
63.000 -1.000 32.000
63.000 -1.000 33.000
63.000 -1.000 34.000
63.000 0.000 14.000
63.000 0.000 15.000
63.000 0.000 21.000
63.000 0.000 30.000
63.000 0.000 31.000
63.000 0.000 32.000
63.000 1.000 16.000
63.000 1.000 17.000
63.000 1.000 20.000
63.000 2.000 18.000
63.000 2.000 19.000
63.000 3.000 18.000
63.000 4.000 16.000
63.000 4.000 18.000
63.000 4.000 23.000
63.000 4.000 24.000
63.000 4.000 25.000
63.000 4.000 26.000
63.000 4.000 27.000
63.000 5.000 15.000
63.000 5.000 16.000
63.000 5.000 18.000
63.000 5.000 22.000
63.000 5.000 23.000
63.000 5.000 24.000
63.000 5.000 25.000
63.000 5.000 26.000
63.000 5.000 27.000
63.000 5.000 28.000
63.000 5.000 29.000
63.000 6.000 15.000
63.000 6.000 22.000
63.000 6.000 23.000
63.000 6.000 24.000
63.000 6.000 25.000
63.000 6.000 26.000
63.000 6.000 27.000
63.000 6.000 28.000
63.000 7.000 22.000
63.000 7.000 23.000
63.000 7.000 24.000
63.000 7.000 25.000
63.000 7.000 26.000
63.000 7.000 27.000
63.000 8.000 23.000
63.000 8.000 24.000
63.000 8.000 25.000
63.000 8.000 26.000
62.000 -23.000 24.000
62.000 -23.000 25.000
62.000 -23.000 26.000
62.000 -22.000 23.000
62.000 -22.000 27.000
62.000 -22.000 28.000
62.000 -21.000 22.000
62.000 -21.000 29.000
62.000 -21.000 35.000
62.000 -21.000 38.000
62.000 -21.000 39.000
62.000 -20.000 21.000
62.000 -20.000 30.000
62.000 -20.000 31.000
62.000 -20.000 32.000
62.000 -20.000 33.000
62.000 -20.000 34.000
62.000 -20.000 36.000
62.000 -20.000 37.000
62.000 -20.000 39.000
62.000 -19.000 20.000
62.000 -19.000 36.000
62.000 -19.000 37.000
62.000 -19.000 38.000
62.000 -19.000 39.000
62.000 -18.000 18.000
62.000 -18.000 19.000
62.000 -18.000 35.000
62.000 -17.000 17.000
62.000 -17.000 33.000
62.000 -17.000 34.000
62.000 -17.000 35.000
62.000 -16.000 17.000
62.000 -16.000 32.000
62.000 -16.000 39.000
62.000 -16.000 40.000
62.000 -16.000 41.000
62.000 -15.000 16.000
62.000 -15.000 31.000
62.000 -15.000 38.000
62.000 -15.000 39.000
62.000 -15.000 42.000
62.000 -15.000 43.000
62.000 -14.000 15.000
62.000 -14.000 32.000
62.000 -14.000 33.000
62.000 -14.000 34.000
62.000 -14.000 36.000
62.000 -14.000 37.000
62.000 -14.000 43.000
62.000 -13.000 15.000
62.000 -13.000 35.000
62.000 -13.000 37.000
62.000 -13.000 43.000
62.000 -12.000 14.000
62.000 -12.000 43.000
62.000 -11.000 14.000
62.000 -11.000 40.000
62.000 -11.000 41.000
62.000 -11.000 42.000
62.000 -11.000 43.000
62.000 -10.000 13.000
62.000 -10.000 37.000
62.000 -10.000 39.000
62.000 -10.000 40.000
62.000 -10.000 41.000
62.000 -9.000 13.000
62.000 -9.000 37.000
62.000 -9.000 38.000
62.000 -8.000 13.000
62.000 -8.000 37.000
62.000 -7.000 13.000
62.000 -7.000 37.000
62.000 -6.000 12.000
62.000 -6.000 29.000
62.000 -6.000 30.000
62.000 -6.000 37.000
62.000 -5.000 12.000
62.000 -5.000 28.000
62.000 -5.000 31.000
62.000 -5.000 37.000
62.000 -5.000 38.000
62.000 -4.000 12.000
62.000 -4.000 27.000
62.000 -4.000 30.000
62.000 -4.000 37.000
62.000 -4.000 38.000
62.000 -3.000 12.000
62.000 -3.000 24.000
62.000 -3.000 25.000
62.000 -3.000 26.000
62.000 -3.000 27.000
62.000 -3.000 29.000
62.000 -3.000 30.000
62.000 -3.000 37.000
62.000 -3.000 38.000
62.000 -2.000 13.000
62.000 -2.000 23.000
62.000 -2.000 28.000
62.000 -2.000 29.000
62.000 -2.000 37.000
62.000 -1.000 13.000
62.000 -1.000 22.000
62.000 -1.000 28.000
62.000 -1.000 29.000
62.000 -1.000 35.000
62.000 -1.000 36.000
62.000 -1.000 37.000
62.000 0.000 14.000
62.000 0.000 15.000
62.000 0.000 16.000
62.000 0.000 17.000
62.000 0.000 21.000
62.000 0.000 27.000
62.000 0.000 28.000
62.000 0.000 29.000
62.000 0.000 33.000
62.000 0.000 34.000
62.000 0.000 35.000
62.000 0.000 36.000
62.000 1.000 18.000
62.000 1.000 19.000
62.000 1.000 20.000
62.000 1.000 26.000
62.000 1.000 27.000
62.000 1.000 28.000
62.000 1.000 29.000
62.000 1.000 30.000
62.000 1.000 31.000
62.000 1.000 32.000
62.000 1.000 33.000
62.000 1.000 34.000
62.000 1.000 35.000
62.000 1.000 36.000
62.000 2.000 18.000
62.000 2.000 24.000
62.000 2.000 25.000
62.000 2.000 26.000
62.000 2.000 27.000
62.000 2.000 28.000
62.000 2.000 29.000
62.000 2.000 30.000
62.000 2.000 31.000
62.000 2.000 32.000
62.000 2.000 33.000
62.000 2.000 34.000
62.000 2.000 35.000
62.000 3.000 15.000
62.000 3.000 16.000
62.000 3.000 18.000
62.000 3.000 23.000
62.000 3.000 24.000
62.000 3.000 25.000
62.000 3.000 26.000
62.000 3.000 27.000
62.000 3.000 28.000
62.000 3.000 29.000
62.000 3.000 30.000
62.000 3.000 31.000
62.000 3.000 32.000
62.000 3.000 33.000
62.000 3.000 34.000
62.000 3.000 35.000
62.000 4.000 14.000
62.000 4.000 15.000
62.000 4.000 17.000
62.000 4.000 18.000
62.000 4.000 22.000
62.000 4.000 28.000
62.000 4.000 29.000
62.000 4.000 30.000
62.000 4.000 31.000
62.000 4.000 32.000
62.000 4.000 33.000
62.000 4.000 34.000
62.000 5.000 14.000
62.000 5.000 17.000
62.000 5.000 18.000
62.000 5.000 21.000
62.000 5.000 30.000
62.000 5.000 31.000
62.000 5.000 32.000
62.000 5.000 33.000
62.000 6.000 14.000
62.000 6.000 16.000
62.000 6.000 21.000
62.000 6.000 29.000
62.000 6.000 30.000
62.000 7.000 15.000
62.000 7.000 21.000
62.000 7.000 28.000
62.000 8.000 21.000
62.000 8.000 22.000
62.000 8.000 26.000
62.000 8.000 27.000
62.000 9.000 22.000
62.000 9.000 23.000
62.000 9.000 24.000
62.000 9.000 25.000
61.000 -23.000 24.000
61.000 -23.000 25.000
61.000 -22.000 23.000
61.000 -22.000 26.000
61.000 -22.000 27.000
61.000 -21.000 22.000
61.000 -21.000 28.000
61.000 -21.000 29.000
61.000 -21.000 38.000
61.000 -21.000 39.000
61.000 -20.000 21.000
61.000 -20.000 30.000
61.000 -20.000 31.000
61.000 -20.000 34.000
61.000 -20.000 35.000
61.000 -20.000 36.000
61.000 -20.000 37.000
61.000 -20.000 38.000
61.000 -20.000 39.000
61.000 -19.000 19.000
61.000 -19.000 20.000
61.000 -19.000 32.000
61.000 -19.000 33.000
61.000 -19.000 36.000
61.000 -19.000 37.000
61.000 -18.000 18.000
61.000 -18.000 35.000
61.000 -17.000 17.000
61.000 -17.000 33.000
61.000 -17.000 34.000
61.000 -16.000 16.000
61.000 -16.000 32.000
61.000 -16.000 38.000
61.000 -16.000 39.000
61.000 -16.000 40.000
61.000 -16.000 41.000
61.000 -16.000 42.000
61.000 -16.000 43.000
61.000 -15.000 16.000
61.000 -15.000 31.000
61.000 -15.000 36.000
61.000 -15.000 37.000
61.000 -15.000 43.000
61.000 -14.000 15.000
61.000 -14.000 31.000
61.000 -14.000 36.000
61.000 -14.000 44.000
61.000 -14.000 45.000
61.000 -13.000 15.000
61.000 -13.000 32.000
61.000 -13.000 33.000
61.000 -13.000 34.000
61.000 -13.000 35.000
61.000 -13.000 44.000
61.000 -13.000 45.000
61.000 -12.000 14.000
61.000 -12.000 44.000
61.000 -12.000 45.000
61.000 -11.000 14.000
61.000 -11.000 43.000
61.000 -11.000 45.000
61.000 -10.000 14.000
61.000 -10.000 42.000
61.000 -10.000 43.000
61.000 -10.000 45.000
61.000 -9.000 14.000
61.000 -9.000 38.000
61.000 -9.000 39.000
61.000 -9.000 40.000
61.000 -9.000 41.000
61.000 -8.000 13.000
61.000 -8.000 14.000
61.000 -8.000 37.000
61.000 -7.000 13.000
61.000 -7.000 37.000
61.000 -6.000 12.000
61.000 -6.000 29.000
61.000 -6.000 37.000
61.000 -5.000 12.000
61.000 -5.000 28.000
61.000 -5.000 30.000
61.000 -5.000 37.000
61.000 -4.000 12.000
61.000 -4.000 13.000
61.000 -4.000 28.000
61.000 -4.000 29.000
61.000 -4.000 38.000
61.000 -3.000 13.000
61.000 -3.000 25.000
61.000 -3.000 26.000
61.000 -3.000 28.000
61.000 -3.000 38.000
61.000 -2.000 13.000
61.000 -2.000 24.000
61.000 -2.000 27.000
61.000 -2.000 37.000
61.000 -1.000 14.000
61.000 -1.000 15.000
61.000 -1.000 23.000
61.000 -1.000 24.000
61.000 -1.000 26.000
61.000 -1.000 27.000
61.000 -1.000 37.000
61.000 0.000 16.000
61.000 0.000 17.000
61.000 0.000 19.000
61.000 0.000 21.000
61.000 0.000 22.000
61.000 0.000 23.000
61.000 0.000 24.000
61.000 0.000 25.000
61.000 0.000 26.000
61.000 0.000 37.000
61.000 1.000 18.000
61.000 1.000 20.000
61.000 1.000 23.000
61.000 1.000 24.000
61.000 1.000 25.000
61.000 1.000 36.000
61.000 2.000 15.000
61.000 2.000 16.000
61.000 2.000 18.000
61.000 2.000 23.000
61.000 2.000 36.000
61.000 3.000 14.000
61.000 3.000 17.000
61.000 3.000 18.000
61.000 3.000 22.000
61.000 3.000 35.000
61.000 4.000 13.000
61.000 4.000 17.000
61.000 4.000 22.000
61.000 4.000 35.000
61.000 5.000 13.000
61.000 5.000 16.000
61.000 5.000 21.000
61.000 5.000 31.000
61.000 5.000 34.000
61.000 6.000 12.000
61.000 6.000 13.000
61.000 6.000 15.000
61.000 6.000 16.000
61.000 6.000 21.000
61.000 6.000 29.000
61.000 6.000 30.000
61.000 6.000 32.000
61.000 6.000 33.000
61.000 7.000 13.000
61.000 7.000 14.000
61.000 7.000 21.000
61.000 7.000 28.000
61.000 8.000 21.000
61.000 8.000 26.000
61.000 8.000 27.000
61.000 9.000 21.000
61.000 9.000 22.000
61.000 9.000 23.000
61.000 9.000 24.000
61.000 9.000 25.000
60.000 -22.000 23.000
60.000 -22.000 24.000
60.000 -22.000 25.000
60.000 -22.000 26.000
60.000 -22.000 27.000
60.000 -21.000 22.000
60.000 -21.000 28.000
60.000 -21.000 35.000
60.000 -21.000 38.000
60.000 -21.000 39.000
60.000 -20.000 20.000
60.000 -20.000 21.000
60.000 -20.000 29.000
60.000 -20.000 30.000
60.000 -20.000 31.000
60.000 -20.000 35.000
60.000 -20.000 38.000
60.000 -20.000 39.000
60.000 -19.000 19.000
60.000 -19.000 32.000
60.000 -19.000 33.000
60.000 -19.000 34.000
60.000 -19.000 35.000
60.000 -18.000 18.000
60.000 -18.000 34.000
60.000 -18.000 35.000
60.000 -17.000 17.000
60.000 -17.000 32.000
60.000 -17.000 33.000
60.000 -17.000 39.000
60.000 -17.000 40.000
60.000 -17.000 44.000
60.000 -16.000 16.000
60.000 -16.000 31.000
60.000 -16.000 37.000
60.000 -16.000 38.000
60.000 -16.000 41.000
60.000 -16.000 42.000
60.000 -16.000 43.000
60.000 -16.000 44.000
60.000 -15.000 16.000
60.000 -15.000 30.000
60.000 -15.000 35.000
60.000 -15.000 36.000
60.000 -15.000 44.000
60.000 -15.000 45.000
60.000 -14.000 15.000
60.000 -14.000 29.000
60.000 -14.000 31.000
60.000 -14.000 34.000
60.000 -14.000 35.000
60.000 -14.000 45.000
60.000 -13.000 15.000
60.000 -13.000 32.000
60.000 -13.000 33.000
60.000 -13.000 46.000
60.000 -12.000 15.000
60.000 -12.000 46.000
60.000 -12.000 47.000
60.000 -11.000 15.000
60.000 -11.000 44.000
60.000 -11.000 46.000
60.000 -11.000 47.000
60.000 -10.000 14.000
60.000 -10.000 43.000
60.000 -10.000 45.000
60.000 -9.000 14.000
60.000 -9.000 15.000
60.000 -9.000 38.000
60.000 -9.000 39.000
60.000 -9.000 40.000
60.000 -9.000 41.000
60.000 -9.000 42.000
60.000 -9.000 43.000
60.000 -9.000 45.000
60.000 -8.000 15.000
60.000 -8.000 16.000
60.000 -8.000 37.000
60.000 -7.000 14.000
60.000 -7.000 37.000
60.000 -6.000 13.000
60.000 -6.000 14.000
60.000 -6.000 37.000
60.000 -5.000 13.000
60.000 -5.000 29.000
60.000 -5.000 37.000
60.000 -4.000 14.000
60.000 -4.000 37.000
60.000 -3.000 14.000
60.000 -3.000 36.000
60.000 -3.000 37.000
60.000 -2.000 14.000
60.000 -2.000 15.000
60.000 -2.000 25.000
60.000 -2.000 26.000
60.000 -2.000 36.000
60.000 -2.000 37.000
60.000 -1.000 15.000
60.000 -1.000 16.000
60.000 -1.000 17.000
60.000 -1.000 18.000
60.000 -1.000 25.000
60.000 -1.000 36.000
60.000 0.000 18.000
60.000 0.000 19.000
60.000 0.000 21.000
60.000 0.000 22.000
60.000 0.000 36.000
60.000 1.000 18.000
60.000 1.000 20.000
60.000 1.000 23.000
60.000 1.000 25.000
60.000 1.000 36.000
60.000 2.000 14.000
60.000 2.000 15.000
60.000 2.000 16.000
60.000 2.000 17.000
60.000 2.000 18.000
60.000 2.000 23.000
60.000 2.000 35.000
60.000 3.000 13.000
60.000 3.000 16.000
60.000 3.000 23.000
60.000 3.000 35.000
60.000 4.000 13.000
60.000 4.000 16.000
60.000 4.000 22.000
60.000 4.000 35.000
60.000 5.000 12.000
60.000 5.000 15.000
60.000 5.000 21.000
60.000 5.000 29.000
60.000 5.000 30.000
60.000 5.000 31.000
60.000 5.000 35.000
60.000 6.000 12.000
60.000 6.000 15.000
60.000 6.000 21.000
60.000 6.000 28.000
60.000 6.000 32.000
60.000 6.000 33.000
60.000 6.000 34.000
60.000 7.000 12.000
60.000 7.000 13.000
60.000 7.000 14.000
60.000 7.000 21.000
60.000 7.000 27.000
60.000 7.000 28.000
60.000 8.000 21.000
60.000 8.000 25.000
60.000 8.000 26.000
60.000 9.000 22.000
60.000 9.000 23.000
60.000 9.000 24.000
59.000 -22.000 24.000
59.000 -22.000 25.000
59.000 -22.000 26.000
59.000 -21.000 22.000
59.000 -21.000 23.000
59.000 -21.000 27.000
59.000 -21.000 28.000
59.000 -21.000 29.000
59.000 -21.000 35.000
59.000 -20.000 20.000
59.000 -20.000 21.000
59.000 -20.000 30.000
59.000 -20.000 31.000
59.000 -20.000 32.000
59.000 -20.000 35.000
59.000 -19.000 19.000
59.000 -19.000 33.000
59.000 -19.000 35.000
59.000 -18.000 18.000
59.000 -18.000 33.000
59.000 -17.000 17.000
59.000 -17.000 32.000
59.000 -17.000 37.000
59.000 -17.000 38.000
59.000 -17.000 39.000
59.000 -17.000 40.000
59.000 -17.000 41.000
59.000 -17.000 44.000
59.000 -16.000 16.000
59.000 -16.000 31.000
59.000 -16.000 35.000
59.000 -16.000 36.000
59.000 -16.000 42.000
59.000 -16.000 43.000
59.000 -16.000 44.000
59.000 -15.000 16.000
59.000 -15.000 29.000
59.000 -15.000 30.000
59.000 -15.000 34.000
59.000 -15.000 44.000
59.000 -15.000 45.000
59.000 -14.000 16.000
59.000 -14.000 28.000
59.000 -14.000 30.000
59.000 -14.000 33.000
59.000 -14.000 46.000
59.000 -13.000 16.000
59.000 -13.000 29.000
59.000 -13.000 31.000
59.000 -13.000 32.000
59.000 -13.000 47.000
59.000 -12.000 15.000
59.000 -12.000 16.000
59.000 -12.000 47.000
59.000 -11.000 15.000
59.000 -11.000 16.000
59.000 -11.000 47.000
59.000 -10.000 15.000
59.000 -10.000 16.000
59.000 -10.000 27.000
59.000 -10.000 44.000
59.000 -10.000 46.000
59.000 -10.000 47.000
59.000 -9.000 16.000
59.000 -9.000 38.000
59.000 -9.000 39.000
59.000 -9.000 40.000
59.000 -9.000 41.000
59.000 -9.000 42.000
59.000 -9.000 43.000
59.000 -9.000 45.000
59.000 -8.000 15.000
59.000 -8.000 17.000
59.000 -8.000 37.000
59.000 -7.000 15.000
59.000 -7.000 16.000
59.000 -7.000 37.000
59.000 -6.000 15.000
59.000 -6.000 36.000
59.000 -5.000 14.000
59.000 -5.000 16.000
59.000 -5.000 36.000
59.000 -4.000 14.000
59.000 -4.000 15.000
59.000 -4.000 16.000
59.000 -4.000 36.000
59.000 -3.000 13.000
59.000 -3.000 14.000
59.000 -3.000 15.000
59.000 -3.000 16.000
59.000 -3.000 35.000
59.000 -2.000 13.000
59.000 -2.000 16.000
59.000 -2.000 17.000
59.000 -2.000 18.000
59.000 -2.000 35.000
59.000 -1.000 13.000
59.000 -1.000 19.000
59.000 -1.000 35.000
59.000 0.000 13.000
59.000 0.000 18.000
59.000 0.000 20.000
59.000 0.000 21.000
59.000 0.000 22.000
59.000 0.000 24.000
59.000 0.000 25.000
59.000 0.000 35.000
59.000 1.000 13.000
59.000 1.000 14.000
59.000 1.000 15.000
59.000 1.000 16.000
59.000 1.000 17.000
59.000 1.000 18.000
59.000 1.000 23.000
59.000 1.000 24.000
59.000 1.000 26.000
59.000 1.000 35.000
59.000 2.000 13.000
59.000 2.000 17.000
59.000 2.000 18.000
59.000 2.000 23.000
59.000 2.000 24.000
59.000 2.000 25.000
59.000 2.000 35.000
59.000 3.000 12.000
59.000 3.000 16.000
59.000 3.000 23.000
59.000 3.000 24.000
59.000 3.000 35.000
59.000 4.000 12.000
59.000 4.000 15.000
59.000 4.000 22.000
59.000 4.000 24.000
59.000 4.000 30.000
59.000 4.000 35.000
59.000 5.000 12.000
59.000 5.000 14.000
59.000 5.000 21.000
59.000 5.000 24.000
59.000 5.000 25.000
59.000 5.000 26.000
59.000 5.000 27.000
59.000 5.000 28.000
59.000 5.000 29.000
59.000 5.000 31.000
59.000 5.000 35.000
59.000 6.000 12.000
59.000 6.000 13.000
59.000 6.000 14.000
59.000 6.000 21.000
59.000 6.000 22.000
59.000 6.000 25.000
59.000 6.000 26.000
59.000 6.000 27.000
59.000 6.000 29.000
59.000 6.000 32.000
59.000 6.000 33.000
59.000 6.000 34.000
59.000 7.000 21.000
59.000 7.000 22.000
59.000 7.000 23.000
59.000 7.000 25.000
59.000 7.000 26.000
59.000 7.000 27.000
59.000 8.000 22.000
59.000 8.000 23.000
59.000 8.000 24.000
59.000 8.000 25.000
58.000 -26.000 33.000
58.000 -25.000 33.000
58.000 -24.000 33.000
58.000 -22.000 25.000
58.000 -22.000 26.000
58.000 -22.000 27.000
58.000 -22.000 28.000
58.000 -22.000 29.000
58.000 -21.000 23.000
58.000 -21.000 24.000
58.000 -21.000 30.000
58.000 -21.000 31.000
58.000 -21.000 32.000
58.000 -20.000 21.000
58.000 -20.000 22.000
58.000 -20.000 32.000
58.000 -19.000 19.000
58.000 -19.000 20.000
58.000 -19.000 32.000
58.000 -18.000 18.000
58.000 -18.000 19.000
58.000 -18.000 32.000
58.000 -17.000 18.000
58.000 -17.000 31.000
58.000 -17.000 37.000
58.000 -17.000 38.000
58.000 -17.000 39.000
58.000 -17.000 40.000
58.000 -17.000 41.000
58.000 -17.000 42.000
58.000 -17.000 44.000
58.000 -16.000 17.000
58.000 -16.000 18.000
58.000 -16.000 30.000
58.000 -16.000 35.000
58.000 -16.000 36.000
58.000 -16.000 43.000
58.000 -16.000 44.000
58.000 -16.000 46.000
58.000 -15.000 17.000
58.000 -15.000 18.000
58.000 -15.000 29.000
58.000 -15.000 34.000
58.000 -15.000 43.000
58.000 -15.000 45.000
58.000 -14.000 17.000
58.000 -14.000 18.000
58.000 -14.000 19.000
58.000 -14.000 29.000
58.000 -14.000 33.000
58.000 -14.000 44.000
58.000 -14.000 46.000
58.000 -13.000 17.000
58.000 -13.000 18.000
58.000 -13.000 19.000
58.000 -13.000 20.000
58.000 -13.000 28.000
58.000 -13.000 30.000
58.000 -13.000 31.000
58.000 -13.000 32.000
58.000 -13.000 47.000
58.000 -12.000 17.000
58.000 -12.000 18.000
58.000 -12.000 19.000
58.000 -12.000 20.000
58.000 -12.000 21.000
58.000 -12.000 22.000
58.000 -12.000 24.000
58.000 -12.000 29.000
58.000 -12.000 47.000
58.000 -11.000 17.000
58.000 -11.000 18.000
58.000 -11.000 19.000
58.000 -11.000 20.000
58.000 -11.000 21.000
58.000 -11.000 22.000
58.000 -11.000 27.000
58.000 -11.000 47.000
58.000 -10.000 17.000
58.000 -10.000 18.000
58.000 -10.000 19.000
58.000 -10.000 20.000
58.000 -10.000 21.000
58.000 -10.000 22.000
58.000 -10.000 26.000
58.000 -10.000 28.000
58.000 -10.000 47.000
58.000 -9.000 17.000
58.000 -9.000 18.000
58.000 -9.000 19.000
58.000 -9.000 20.000
58.000 -9.000 21.000
58.000 -9.000 22.000
58.000 -9.000 27.000
58.000 -9.000 37.000
58.000 -9.000 38.000
58.000 -9.000 39.000
58.000 -9.000 40.000
58.000 -9.000 42.000
58.000 -9.000 43.000
58.000 -9.000 44.000
58.000 -9.000 45.000
58.000 -9.000 46.000
58.000 -9.000 47.000
58.000 -8.000 15.000
58.000 -8.000 18.000
58.000 -8.000 36.000
58.000 -8.000 41.000
58.000 -7.000 15.000
58.000 -7.000 16.000
58.000 -7.000 17.000
58.000 -7.000 36.000
58.000 -6.000 15.000
58.000 -6.000 16.000
58.000 -6.000 17.000
58.000 -6.000 35.000
58.000 -5.000 14.000
58.000 -5.000 15.000
58.000 -5.000 17.000
58.000 -5.000 35.000
58.000 -4.000 14.000
58.000 -4.000 17.000
58.000 -4.000 18.000
58.000 -4.000 34.000
58.000 -4.000 35.000
58.000 -3.000 12.000
58.000 -3.000 13.000
58.000 -3.000 14.000
58.000 -3.000 17.000
58.000 -3.000 18.000
58.000 -3.000 33.000
58.000 -3.000 34.000
58.000 -2.000 12.000
58.000 -2.000 13.000
58.000 -2.000 18.000
58.000 -2.000 19.000
58.000 -2.000 33.000
58.000 -2.000 34.000
58.000 -1.000 12.000
58.000 -1.000 13.000
58.000 -1.000 20.000
58.000 -1.000 21.000
58.000 -1.000 24.000
58.000 -1.000 25.000
58.000 -1.000 33.000
58.000 -1.000 34.000
58.000 0.000 12.000
58.000 0.000 13.000
58.000 0.000 18.000
58.000 0.000 22.000
58.000 0.000 23.000
58.000 0.000 26.000
58.000 0.000 34.000
58.000 1.000 12.000
58.000 1.000 14.000
58.000 1.000 15.000
58.000 1.000 16.000
58.000 1.000 17.000
58.000 1.000 18.000
58.000 1.000 26.000
58.000 1.000 35.000
58.000 2.000 12.000
58.000 2.000 17.000
58.000 2.000 18.000
58.000 2.000 26.000
58.000 2.000 27.000
58.000 2.000 35.000
58.000 3.000 12.000
58.000 3.000 16.000
58.000 3.000 23.000
58.000 3.000 25.000
58.000 3.000 30.000
58.000 3.000 35.000
58.000 4.000 12.000
58.000 4.000 14.000
58.000 4.000 15.000
58.000 4.000 22.000
58.000 4.000 23.000
58.000 4.000 25.000
58.000 4.000 26.000
58.000 4.000 27.000
58.000 4.000 31.000
58.000 4.000 35.000
58.000 5.000 12.000
58.000 5.000 13.000
58.000 5.000 22.000
58.000 5.000 23.000
58.000 5.000 28.000
58.000 5.000 30.000
58.000 5.000 32.000
58.000 5.000 34.000
58.000 6.000 23.000
58.000 6.000 24.000
58.000 6.000 28.000
58.000 6.000 30.000
58.000 6.000 31.000
58.000 6.000 33.000
58.000 7.000 24.000
58.000 7.000 29.000
58.000 7.000 30.000
58.000 7.000 31.000
58.000 8.000 30.000
58.000 8.000 31.000
57.000 -26.000 33.000
57.000 -25.000 31.000
57.000 -25.000 32.000
57.000 -25.000 34.000
57.000 -24.000 30.000
57.000 -24.000 31.000
57.000 -24.000 32.000
57.000 -24.000 34.000
57.000 -24.000 36.000
57.000 -23.000 24.000
57.000 -23.000 25.000
57.000 -23.000 26.000
57.000 -23.000 27.000
57.000 -23.000 28.000
57.000 -23.000 29.000
57.000 -23.000 30.000
57.000 -23.000 31.000
57.000 -23.000 32.000
57.000 -23.000 33.000
57.000 -23.000 34.000
57.000 -23.000 36.000
57.000 -22.000 24.000
57.000 -22.000 30.000
57.000 -22.000 31.000
57.000 -22.000 32.000
57.000 -22.000 33.000
57.000 -22.000 34.000
57.000 -21.000 23.000
57.000 -21.000 33.000
57.000 -20.000 22.000
57.000 -20.000 33.000
57.000 -19.000 21.000
57.000 -19.000 22.000
57.000 -19.000 32.000
57.000 -18.000 20.000
57.000 -18.000 21.000
57.000 -18.000 32.000
57.000 -17.000 19.000
57.000 -17.000 20.000
57.000 -17.000 22.000
57.000 -17.000 31.000
57.000 -17.000 37.000
57.000 -17.000 38.000
57.000 -17.000 39.000
57.000 -17.000 42.000
57.000 -17.000 43.000
57.000 -17.000 44.000
57.000 -17.000 45.000
57.000 -17.000 46.000
57.000 -17.000 47.000
57.000 -16.000 19.000
57.000 -16.000 30.000
57.000 -16.000 35.000
57.000 -16.000 36.000
57.000 -16.000 40.000
57.000 -16.000 41.000
57.000 -16.000 45.000
57.000 -16.000 47.000
57.000 -15.000 19.000
57.000 -15.000 20.000
57.000 -15.000 29.000
57.000 -15.000 34.000
57.000 -15.000 44.000
57.000 -15.000 46.000
57.000 -15.000 47.000
57.000 -14.000 20.000
57.000 -14.000 29.000
57.000 -14.000 34.000
57.000 -14.000 45.000
57.000 -13.000 21.000
57.000 -13.000 22.000
57.000 -13.000 24.000
57.000 -13.000 29.000
57.000 -13.000 30.000
57.000 -13.000 33.000
57.000 -13.000 46.000
57.000 -12.000 23.000
57.000 -12.000 25.000
57.000 -12.000 27.000
57.000 -12.000 28.000
57.000 -12.000 29.000
57.000 -12.000 31.000
57.000 -12.000 32.000
57.000 -12.000 47.000
57.000 -11.000 23.000
57.000 -11.000 24.000
57.000 -11.000 26.000
57.000 -11.000 28.000
57.000 -11.000 47.000
57.000 -10.000 23.000
57.000 -10.000 24.000
57.000 -10.000 27.000
57.000 -10.000 28.000
57.000 -10.000 47.000
57.000 -9.000 23.000
57.000 -9.000 37.000
57.000 -9.000 38.000
57.000 -9.000 39.000
57.000 -9.000 40.000
57.000 -9.000 42.000
57.000 -9.000 43.000
57.000 -9.000 44.000
57.000 -9.000 45.000
57.000 -9.000 46.000
57.000 -9.000 47.000
57.000 -8.000 19.000
57.000 -8.000 20.000
57.000 -8.000 21.000
57.000 -8.000 22.000
57.000 -8.000 36.000
57.000 -8.000 41.000
57.000 -7.000 18.000
57.000 -7.000 19.000
57.000 -7.000 20.000
57.000 -7.000 21.000
57.000 -7.000 22.000
57.000 -7.000 35.000
57.000 -6.000 18.000
57.000 -6.000 19.000
57.000 -6.000 20.000
57.000 -6.000 31.000
57.000 -6.000 32.000
57.000 -6.000 34.000
57.000 -6.000 35.000
57.000 -5.000 18.000
57.000 -5.000 19.000
57.000 -5.000 20.000
57.000 -5.000 30.000
57.000 -5.000 31.000
57.000 -5.000 32.000
57.000 -5.000 33.000
57.000 -5.000 34.000
57.000 -4.000 19.000
57.000 -4.000 30.000
57.000 -4.000 31.000
57.000 -4.000 32.000
57.000 -4.000 33.000
57.000 -3.000 12.000
57.000 -3.000 19.000
57.000 -3.000 20.000
57.000 -3.000 29.000
57.000 -3.000 30.000
57.000 -3.000 31.000
57.000 -3.000 32.000
57.000 -2.000 12.000
57.000 -2.000 20.000
57.000 -2.000 21.000
57.000 -2.000 25.000
57.000 -2.000 26.000
57.000 -2.000 27.000
57.000 -2.000 29.000
57.000 -2.000 30.000
57.000 -2.000 31.000
57.000 -2.000 32.000
57.000 -1.000 12.000
57.000 -1.000 21.000
57.000 -1.000 22.000
57.000 -1.000 23.000
57.000 -1.000 24.000
57.000 -1.000 25.000
57.000 -1.000 26.000
57.000 -1.000 27.000
57.000 -1.000 29.000
57.000 -1.000 32.000
57.000 0.000 12.000
57.000 0.000 17.000
57.000 0.000 18.000
57.000 0.000 19.000
57.000 0.000 27.000
57.000 0.000 33.000
57.000 1.000 12.000
57.000 1.000 13.000
57.000 1.000 14.000
57.000 1.000 15.000
57.000 1.000 16.000
57.000 1.000 19.000
57.000 1.000 26.000
57.000 1.000 27.000
57.000 1.000 34.000
57.000 2.000 12.000
57.000 2.000 17.000
57.000 2.000 18.000
57.000 2.000 25.000
57.000 2.000 26.000
57.000 2.000 28.000
57.000 2.000 29.000
57.000 2.000 30.000
57.000 2.000 35.000
57.000 3.000 12.000
57.000 3.000 16.000
57.000 3.000 24.000
57.000 3.000 27.000
57.000 3.000 29.000
57.000 3.000 31.000
57.000 3.000 35.000
57.000 4.000 12.000
57.000 4.000 13.000
57.000 4.000 14.000
57.000 4.000 15.000
57.000 4.000 24.000
57.000 4.000 30.000
57.000 4.000 35.000
57.000 5.000 24.000
57.000 5.000 25.000
57.000 5.000 26.000
57.000 5.000 27.000
57.000 5.000 31.000
57.000 5.000 33.000
57.000 5.000 34.000
57.000 6.000 27.000
57.000 6.000 32.000
57.000 7.000 27.000
57.000 7.000 28.000
57.000 7.000 32.000
57.000 8.000 28.000
57.000 8.000 29.000
57.000 8.000 30.000
57.000 8.000 31.000
57.000 8.000 32.000
56.000 -26.000 32.000
56.000 -25.000 29.000
56.000 -25.000 30.000
56.000 -25.000 31.000
56.000 -25.000 33.000
56.000 -25.000 34.000
56.000 -24.000 25.000
56.000 -24.000 26.000
56.000 -24.000 27.000
56.000 -24.000 28.000
56.000 -24.000 29.000
56.000 -24.000 35.000
56.000 -24.000 36.000
56.000 -23.000 24.000
56.000 -23.000 35.000
56.000 -23.000 36.000
56.000 -22.000 24.000
56.000 -22.000 35.000
56.000 -21.000 23.000
56.000 -21.000 34.000
56.000 -21.000 35.000
56.000 -20.000 23.000
56.000 -20.000 33.000
56.000 -19.000 23.000
56.000 -19.000 32.000
56.000 -18.000 22.000
56.000 -18.000 31.000
56.000 -18.000 45.000
56.000 -18.000 46.000
56.000 -17.000 21.000
56.000 -17.000 23.000
56.000 -17.000 30.000
56.000 -17.000 42.000
56.000 -17.000 43.000
56.000 -17.000 44.000
56.000 -17.000 47.000
56.000 -16.000 20.000
56.000 -16.000 22.000
56.000 -16.000 30.000
56.000 -16.000 35.000
56.000 -16.000 36.000
56.000 -16.000 37.000
56.000 -16.000 38.000
56.000 -16.000 39.000
56.000 -16.000 40.000
56.000 -16.000 42.000
56.000 -16.000 47.000
56.000 -15.000 21.000
56.000 -15.000 30.000
56.000 -15.000 34.000
56.000 -15.000 41.000
56.000 -15.000 47.000
56.000 -14.000 21.000
56.000 -14.000 29.000
56.000 -14.000 34.000
56.000 -14.000 46.000
56.000 -13.000 22.000
56.000 -13.000 23.000
56.000 -13.000 24.000
56.000 -13.000 27.000
56.000 -13.000 28.000
56.000 -13.000 34.000
56.000 -13.000 45.000
56.000 -12.000 25.000
56.000 -12.000 26.000
56.000 -12.000 30.000
56.000 -12.000 31.000
56.000 -12.000 32.000
56.000 -12.000 33.000
56.000 -12.000 46.000
56.000 -11.000 25.000
56.000 -11.000 26.000
56.000 -11.000 29.000
56.000 -11.000 46.000
56.000 -11.000 47.000
56.000 -10.000 25.000
56.000 -10.000 26.000
56.000 -10.000 29.000
56.000 -10.000 46.000
56.000 -10.000 47.000
56.000 -9.000 24.000
56.000 -9.000 27.000
56.000 -9.000 28.000
56.000 -9.000 29.000
56.000 -9.000 36.000
56.000 -9.000 37.000
56.000 -9.000 38.000
56.000 -9.000 39.000
56.000 -9.000 40.000
56.000 -9.000 42.000
56.000 -9.000 43.000
56.000 -9.000 44.000
56.000 -9.000 45.000
56.000 -8.000 23.000
56.000 -8.000 24.000
56.000 -8.000 35.000
56.000 -8.000 41.000
56.000 -7.000 23.000
56.000 -7.000 29.000
56.000 -7.000 31.000
56.000 -7.000 32.000
56.000 -7.000 33.000
56.000 -7.000 34.000
56.000 -6.000 21.000
56.000 -6.000 22.000
56.000 -6.000 23.000
56.000 -6.000 28.000
56.000 -6.000 29.000
56.000 -6.000 30.000
56.000 -6.000 33.000
56.000 -5.000 21.000
56.000 -5.000 22.000
56.000 -5.000 23.000
56.000 -5.000 25.000
56.000 -5.000 27.000
56.000 -5.000 28.000
56.000 -5.000 29.000
56.000 -4.000 20.000
56.000 -4.000 21.000
56.000 -4.000 25.000
56.000 -4.000 26.000
56.000 -4.000 27.000
56.000 -4.000 29.000
56.000 -3.000 21.000
56.000 -3.000 22.000
56.000 -3.000 23.000
56.000 -3.000 24.000
56.000 -3.000 25.000
56.000 -3.000 26.000
56.000 -3.000 27.000
56.000 -3.000 28.000
56.000 -2.000 22.000
56.000 -2.000 23.000
56.000 -2.000 24.000
56.000 -2.000 28.000
56.000 -1.000 12.000
56.000 -1.000 23.000
56.000 -1.000 28.000
56.000 -1.000 30.000
56.000 -1.000 31.000
56.000 0.000 12.000
56.000 0.000 17.000
56.000 0.000 18.000
56.000 0.000 19.000
56.000 0.000 20.000
56.000 0.000 27.000
56.000 0.000 28.000
56.000 0.000 29.000
56.000 0.000 30.000
56.000 0.000 31.000
56.000 0.000 32.000
56.000 0.000 33.000
56.000 1.000 12.000
56.000 1.000 15.000
56.000 1.000 16.000
56.000 1.000 20.000
56.000 1.000 21.000
56.000 1.000 23.000
56.000 1.000 24.000
56.000 1.000 25.000
56.000 1.000 26.000
56.000 1.000 28.000
56.000 1.000 29.000
56.000 1.000 30.000
56.000 1.000 31.000
56.000 1.000 34.000
56.000 2.000 12.000
56.000 2.000 13.000
56.000 2.000 14.000
56.000 2.000 17.000
56.000 2.000 18.000
56.000 2.000 19.000
56.000 2.000 23.000
56.000 2.000 24.000
56.000 2.000 27.000
56.000 2.000 30.000
56.000 2.000 31.000
56.000 2.000 34.000
56.000 3.000 12.000
56.000 3.000 15.000
56.000 3.000 16.000
56.000 3.000 24.000
56.000 3.000 28.000
56.000 3.000 29.000
56.000 3.000 30.000
56.000 3.000 34.000
56.000 4.000 12.000
56.000 4.000 13.000
56.000 4.000 14.000
56.000 4.000 24.000
56.000 4.000 33.000
56.000 4.000 34.000
56.000 5.000 24.000
56.000 5.000 32.000
56.000 6.000 24.000
56.000 6.000 25.000
56.000 6.000 26.000
56.000 6.000 32.000
56.000 7.000 25.000
56.000 7.000 26.000
56.000 7.000 32.000
56.000 8.000 25.000
56.000 8.000 26.000
56.000 8.000 27.000
56.000 8.000 28.000
56.000 8.000 29.000
56.000 8.000 30.000
56.000 8.000 31.000
55.000 -26.000 27.000
55.000 -26.000 28.000
55.000 -26.000 29.000
55.000 -26.000 30.000
55.000 -26.000 31.000
55.000 -26.000 32.000
55.000 -25.000 26.000
55.000 -25.000 27.000
55.000 -25.000 28.000
55.000 -25.000 33.000
55.000 -25.000 34.000
55.000 -25.000 35.000
55.000 -24.000 25.000
55.000 -24.000 35.000
55.000 -23.000 25.000
55.000 -23.000 35.000
55.000 -22.000 24.000
55.000 -22.000 35.000
55.000 -21.000 23.000
55.000 -21.000 34.000
55.000 -21.000 35.000
55.000 -20.000 23.000
55.000 -20.000 33.000
55.000 -19.000 22.000
55.000 -19.000 32.000
55.000 -18.000 21.000
55.000 -18.000 31.000
55.000 -18.000 44.000
55.000 -18.000 45.000
55.000 -18.000 46.000
55.000 -18.000 47.000
55.000 -17.000 20.000
55.000 -17.000 22.000
55.000 -17.000 30.000
55.000 -17.000 42.000
55.000 -17.000 43.000
55.000 -17.000 48.000
55.000 -16.000 19.000
55.000 -16.000 30.000
55.000 -16.000 37.000
55.000 -16.000 42.000
55.000 -16.000 48.000
55.000 -15.000 20.000
55.000 -15.000 30.000
55.000 -15.000 35.000
55.000 -15.000 36.000
55.000 -15.000 38.000
55.000 -15.000 39.000
55.000 -15.000 40.000
55.000 -15.000 41.000
55.000 -15.000 47.000
55.000 -14.000 21.000
55.000 -14.000 29.000
55.000 -14.000 30.000
55.000 -14.000 34.000
55.000 -14.000 46.000
55.000 -13.000 22.000
55.000 -13.000 23.000
55.000 -13.000 24.000
55.000 -13.000 27.000
55.000 -13.000 28.000
55.000 -13.000 30.000
55.000 -13.000 31.000
55.000 -13.000 32.000
55.000 -13.000 34.000
55.000 -13.000 45.000
55.000 -12.000 25.000
55.000 -12.000 26.000
55.000 -12.000 30.000
55.000 -12.000 33.000
55.000 -12.000 45.000
55.000 -11.000 26.000
55.000 -11.000 30.000
55.000 -11.000 42.000
55.000 -11.000 43.000
55.000 -11.000 44.000
55.000 -11.000 45.000
55.000 -10.000 30.000
55.000 -10.000 42.000
55.000 -10.000 43.000
55.000 -10.000 44.000
55.000 -10.000 45.000
55.000 -9.000 25.000
55.000 -9.000 26.000
55.000 -9.000 27.000
55.000 -9.000 28.000
55.000 -9.000 30.000
55.000 -9.000 35.000
55.000 -9.000 36.000
55.000 -9.000 37.000
55.000 -9.000 38.000
55.000 -9.000 39.000
55.000 -9.000 40.000
55.000 -9.000 41.000
55.000 -8.000 25.000
55.000 -8.000 29.000
55.000 -8.000 31.000
55.000 -8.000 32.000
55.000 -8.000 33.000
55.000 -8.000 34.000
55.000 -7.000 24.000
55.000 -7.000 25.000
55.000 -7.000 28.000
55.000 -7.000 30.000
55.000 -6.000 24.000
55.000 -6.000 25.000
55.000 -6.000 27.000
55.000 -5.000 24.000
55.000 -5.000 26.000
55.000 -4.000 22.000
55.000 -4.000 23.000
55.000 -4.000 24.000
55.000 -4.000 28.000
55.000 0.000 17.000
55.000 0.000 18.000
55.000 0.000 19.000
55.000 0.000 20.000
55.000 0.000 21.000
55.000 0.000 22.000
55.000 0.000 23.000
55.000 0.000 24.000
55.000 1.000 15.000
55.000 1.000 16.000
55.000 1.000 22.000
55.000 1.000 25.000
55.000 1.000 26.000
55.000 1.000 27.000
55.000 1.000 32.000
55.000 1.000 33.000
55.000 2.000 14.000
55.000 2.000 17.000
55.000 2.000 18.000
55.000 2.000 19.000
55.000 2.000 20.000
55.000 2.000 21.000
55.000 2.000 22.000
55.000 2.000 27.000
55.000 2.000 30.000
55.000 2.000 32.000
55.000 2.000 33.000
55.000 2.000 34.000
55.000 3.000 12.000
55.000 3.000 13.000
55.000 3.000 15.000
55.000 3.000 16.000
55.000 3.000 22.000
55.000 3.000 23.000
55.000 3.000 28.000
55.000 3.000 29.000
55.000 3.000 31.000
55.000 3.000 33.000
55.000 4.000 12.000
55.000 4.000 13.000
55.000 4.000 14.000
55.000 4.000 23.000
55.000 4.000 32.000
55.000 5.000 23.000
55.000 5.000 32.000
55.000 6.000 23.000
55.000 6.000 32.000
55.000 7.000 24.000
55.000 7.000 28.000
55.000 7.000 29.000
55.000 7.000 30.000
55.000 7.000 31.000
55.000 8.000 25.000
55.000 8.000 26.000
55.000 8.000 27.000
54.000 -27.000 26.000
54.000 -27.000 27.000
54.000 -27.000 28.000
54.000 -27.000 29.000
54.000 -26.000 26.000
54.000 -26.000 30.000
54.000 -26.000 31.000
54.000 -26.000 32.000
54.000 -26.000 33.000
54.000 -25.000 25.000
54.000 -25.000 34.000
54.000 -24.000 25.000
54.000 -24.000 35.000
54.000 -23.000 25.000
54.000 -23.000 35.000
54.000 -22.000 25.000
54.000 -22.000 34.000
54.000 -21.000 24.000
54.000 -21.000 33.000
54.000 -20.000 23.000
54.000 -20.000 33.000
54.000 -19.000 22.000
54.000 -19.000 32.000
54.000 -18.000 21.000
54.000 -18.000 31.000
54.000 -18.000 44.000
54.000 -18.000 45.000
54.000 -18.000 46.000
54.000 -18.000 47.000
54.000 -18.000 48.000
54.000 -17.000 20.000
54.000 -17.000 30.000
54.000 -17.000 41.000
54.000 -17.000 42.000
54.000 -17.000 43.000
54.000 -17.000 48.000
54.000 -16.000 20.000
54.000 -16.000 30.000
54.000 -16.000 41.000
54.000 -16.000 48.000
54.000 -15.000 20.000
54.000 -15.000 30.000
54.000 -15.000 36.000
54.000 -15.000 37.000
54.000 -15.000 38.000
54.000 -15.000 39.000
54.000 -15.000 40.000
54.000 -15.000 47.000
54.000 -14.000 21.000
54.000 -14.000 22.000
54.000 -14.000 24.000
54.000 -14.000 29.000
54.000 -14.000 31.000
54.000 -14.000 34.000
54.000 -14.000 35.000
54.000 -14.000 41.000
54.000 -14.000 45.000
54.000 -14.000 46.000
54.000 -13.000 23.000
54.000 -13.000 25.000
54.000 -13.000 28.000
54.000 -13.000 30.000
54.000 -13.000 32.000
54.000 -13.000 33.000
54.000 -13.000 41.000
54.000 -13.000 44.000
54.000 -12.000 26.000
54.000 -12.000 27.000
54.000 -12.000 30.000
54.000 -12.000 40.000
54.000 -12.000 41.000
54.000 -12.000 42.000
54.000 -12.000 43.000
54.000 -12.000 44.000
54.000 -11.000 26.000
54.000 -11.000 30.000
54.000 -11.000 38.000
54.000 -11.000 40.000
54.000 -11.000 41.000
54.000 -10.000 31.000
54.000 -10.000 36.000
54.000 -10.000 37.000
54.000 -10.000 38.000
54.000 -10.000 40.000
54.000 -10.000 41.000
54.000 -9.000 30.000
54.000 -9.000 31.000
54.000 -9.000 32.000
54.000 -9.000 33.000
54.000 -9.000 34.000
54.000 -9.000 35.000
54.000 -9.000 39.000
54.000 -9.000 40.000
54.000 -8.000 26.000
54.000 -8.000 27.000
54.000 -8.000 28.000
54.000 -8.000 30.000
54.000 -7.000 26.000
54.000 -7.000 27.000
54.000 -6.000 26.000
54.000 -6.000 27.000
54.000 0.000 17.000
54.000 0.000 18.000
54.000 0.000 19.000
54.000 0.000 20.000
54.000 0.000 21.000
54.000 0.000 22.000
54.000 0.000 23.000
54.000 0.000 24.000
54.000 0.000 25.000
54.000 0.000 26.000
54.000 0.000 27.000
54.000 1.000 15.000
54.000 1.000 16.000
54.000 1.000 27.000
54.000 2.000 15.000
54.000 2.000 17.000
54.000 2.000 18.000
54.000 2.000 19.000
54.000 2.000 20.000
54.000 2.000 28.000
54.000 2.000 29.000
54.000 2.000 30.000
54.000 3.000 13.000
54.000 3.000 14.000
54.000 3.000 15.000
54.000 3.000 16.000
54.000 3.000 21.000
54.000 3.000 31.000
54.000 3.000 32.000
54.000 4.000 13.000
54.000 4.000 14.000
54.000 4.000 22.000
54.000 4.000 32.000
54.000 5.000 22.000
54.000 5.000 32.000
54.000 6.000 23.000
54.000 6.000 29.000
54.000 6.000 30.000
54.000 6.000 31.000
54.000 7.000 24.000
54.000 7.000 27.000
54.000 7.000 28.000
54.000 8.000 25.000
54.000 8.000 26.000
53.000 -28.000 27.000
53.000 -28.000 28.000
53.000 -27.000 26.000
53.000 -27.000 29.000
53.000 -27.000 30.000
53.000 -26.000 26.000
53.000 -26.000 31.000
53.000 -26.000 32.000
53.000 -26.000 33.000
53.000 -25.000 26.000
53.000 -25.000 34.000
53.000 -24.000 26.000
53.000 -24.000 34.000
53.000 -23.000 26.000
53.000 -23.000 34.000
53.000 -22.000 25.000
53.000 -22.000 33.000
53.000 -21.000 25.000
53.000 -21.000 33.000
53.000 -20.000 24.000
53.000 -20.000 32.000
53.000 -19.000 23.000
53.000 -19.000 31.000
53.000 -19.000 46.000
53.000 -18.000 22.000
53.000 -18.000 31.000
53.000 -18.000 43.000
53.000 -18.000 44.000
53.000 -18.000 45.000
53.000 -18.000 47.000
53.000 -18.000 48.000
53.000 -17.000 21.000
53.000 -17.000 31.000
53.000 -17.000 41.000
53.000 -17.000 42.000
53.000 -17.000 47.000
53.000 -17.000 48.000
53.000 -16.000 21.000
53.000 -16.000 31.000
53.000 -16.000 41.000
53.000 -16.000 46.000
53.000 -16.000 47.000
53.000 -16.000 48.000
53.000 -15.000 21.000
53.000 -15.000 31.000
53.000 -15.000 36.000
53.000 -15.000 37.000
53.000 -15.000 38.000
53.000 -15.000 39.000
53.000 -15.000 40.000
53.000 -15.000 41.000
53.000 -15.000 44.000
53.000 -15.000 45.000
53.000 -15.000 46.000
53.000 -14.000 22.000
53.000 -14.000 23.000
53.000 -14.000 24.000
53.000 -14.000 29.000
53.000 -14.000 32.000
53.000 -14.000 34.000
53.000 -14.000 35.000
53.000 -14.000 40.000
53.000 -14.000 42.000
53.000 -14.000 44.000
53.000 -13.000 25.000
53.000 -13.000 28.000
53.000 -13.000 30.000
53.000 -13.000 33.000
53.000 -13.000 39.000
53.000 -13.000 40.000
53.000 -13.000 42.000
53.000 -13.000 43.000
53.000 -12.000 26.000
53.000 -12.000 27.000
53.000 -12.000 30.000
53.000 -12.000 38.000
53.000 -12.000 39.000
53.000 -12.000 42.000
53.000 -12.000 43.000
53.000 -11.000 26.000
53.000 -11.000 30.000
53.000 -11.000 31.000
53.000 -11.000 33.000
53.000 -11.000 36.000
53.000 -11.000 37.000
53.000 -11.000 39.000
53.000 -11.000 42.000
53.000 -10.000 31.000
53.000 -10.000 32.000
53.000 -10.000 33.000
53.000 -10.000 34.000
53.000 -10.000 35.000
53.000 -10.000 36.000
53.000 -10.000 39.000
53.000 -9.000 30.000
53.000 -9.000 31.000
53.000 -2.000 26.000
53.000 -1.000 24.000
53.000 -1.000 25.000
53.000 -1.000 26.000
53.000 -1.000 27.000
53.000 0.000 18.000
53.000 0.000 19.000
53.000 0.000 20.000
53.000 0.000 21.000
53.000 0.000 22.000
53.000 0.000 23.000
53.000 0.000 27.000
53.000 1.000 15.000
53.000 1.000 16.000
53.000 1.000 17.000
53.000 1.000 27.000
53.000 2.000 15.000
53.000 2.000 16.000
53.000 2.000 19.000
53.000 2.000 28.000
53.000 3.000 14.000
53.000 3.000 15.000
53.000 3.000 17.000
53.000 3.000 18.000
53.000 3.000 20.000
53.000 3.000 29.000
53.000 3.000 30.000
53.000 3.000 31.000
53.000 3.000 32.000
53.000 4.000 14.000
53.000 4.000 15.000
53.000 4.000 21.000
53.000 4.000 31.000
53.000 4.000 32.000
53.000 5.000 22.000
53.000 5.000 31.000
53.000 5.000 32.000
53.000 6.000 23.000
53.000 6.000 27.000
53.000 6.000 28.000
53.000 6.000 29.000
53.000 6.000 30.000
53.000 7.000 24.000
53.000 7.000 26.000
53.000 8.000 25.000
52.000 -28.000 27.000
52.000 -28.000 28.000
52.000 -28.000 29.000
52.000 -27.000 26.000
52.000 -27.000 30.000
52.000 -27.000 31.000
52.000 -27.000 33.000
52.000 -26.000 26.000
52.000 -26.000 32.000
52.000 -26.000 33.000
52.000 -25.000 26.000
52.000 -25.000 33.000
52.000 -24.000 26.000
52.000 -24.000 33.000
52.000 -23.000 26.000
52.000 -23.000 33.000
52.000 -22.000 26.000
52.000 -22.000 33.000
52.000 -21.000 25.000
52.000 -21.000 32.000
52.000 -20.000 24.000
52.000 -20.000 32.000
52.000 -19.000 23.000
52.000 -19.000 31.000
52.000 -19.000 46.000
52.000 -18.000 22.000
52.000 -18.000 31.000
52.000 -18.000 44.000
52.000 -18.000 45.000
52.000 -18.000 46.000
52.000 -18.000 48.000
52.000 -17.000 21.000
52.000 -17.000 31.000
52.000 -17.000 41.000
52.000 -17.000 43.000
52.000 -17.000 44.000
52.000 -17.000 45.000
52.000 -17.000 46.000
52.000 -17.000 48.000
52.000 -16.000 21.000
52.000 -16.000 31.000
52.000 -16.000 41.000
52.000 -16.000 42.000
52.000 -16.000 44.000
52.000 -16.000 45.000
52.000 -15.000 22.000
52.000 -15.000 23.000
52.000 -15.000 24.000
52.000 -15.000 32.000
52.000 -15.000 35.000
52.000 -15.000 37.000
52.000 -15.000 38.000
52.000 -15.000 39.000
52.000 -15.000 41.000
52.000 -15.000 42.000
52.000 -15.000 43.000
52.000 -14.000 25.000
52.000 -14.000 33.000
52.000 -14.000 35.000
52.000 -14.000 36.000
52.000 -14.000 38.000
52.000 -14.000 39.000
52.000 -14.000 41.000
52.000 -14.000 42.000
52.000 -14.000 43.000
52.000 -13.000 26.000
52.000 -13.000 28.000
52.000 -13.000 29.000
52.000 -13.000 30.000
52.000 -13.000 34.000
52.000 -13.000 38.000
52.000 -13.000 43.000
52.000 -12.000 26.000
52.000 -12.000 27.000
52.000 -12.000 31.000
52.000 -12.000 33.000
52.000 -12.000 36.000
52.000 -12.000 37.000
52.000 -12.000 42.000
52.000 -12.000 43.000
52.000 -11.000 26.000
52.000 -11.000 27.000
52.000 -11.000 32.000
52.000 -11.000 34.000
52.000 -11.000 35.000
52.000 -11.000 42.000
52.000 -2.000 25.000
52.000 -2.000 26.000
52.000 -2.000 27.000
52.000 -1.000 24.000
52.000 -1.000 27.000
52.000 0.000 18.000
52.000 0.000 19.000
52.000 0.000 20.000
52.000 0.000 21.000
52.000 0.000 22.000
52.000 0.000 23.000
52.000 0.000 27.000
52.000 1.000 17.000
52.000 1.000 28.000
52.000 2.000 15.000
52.000 2.000 16.000
52.000 2.000 17.000
52.000 2.000 28.000
52.000 3.000 14.000
52.000 3.000 15.000
52.000 3.000 18.000
52.000 3.000 19.000
52.000 3.000 20.000
52.000 3.000 29.000
52.000 3.000 30.000
52.000 3.000 32.000
52.000 4.000 14.000
52.000 4.000 15.000
52.000 4.000 21.000
52.000 4.000 30.000
52.000 4.000 32.000
52.000 5.000 22.000
52.000 5.000 27.000
52.000 5.000 28.000
52.000 5.000 29.000
52.000 5.000 30.000
52.000 5.000 32.000
52.000 6.000 23.000
52.000 6.000 24.000
52.000 6.000 26.000
52.000 7.000 25.000
51.000 -29.000 27.000
51.000 -29.000 28.000
51.000 -29.000 30.000
51.000 -28.000 27.000
51.000 -28.000 29.000
51.000 -28.000 30.000
51.000 -27.000 27.000
51.000 -27.000 31.000
51.000 -27.000 32.000
51.000 -27.000 33.000
51.000 -26.000 27.000
51.000 -26.000 33.000
51.000 -25.000 27.000
51.000 -25.000 33.000
51.000 -24.000 27.000
51.000 -24.000 33.000
51.000 -23.000 27.000
51.000 -23.000 33.000
51.000 -22.000 27.000
51.000 -22.000 32.000
51.000 -21.000 26.000
51.000 -21.000 32.000
51.000 -20.000 24.000
51.000 -20.000 25.000
51.000 -20.000 31.000
51.000 -19.000 23.000
51.000 -19.000 31.000
51.000 -18.000 22.000
51.000 -18.000 23.000
51.000 -18.000 31.000
51.000 -17.000 22.000
51.000 -17.000 23.000
51.000 -17.000 31.000
51.000 -17.000 41.000
51.000 -17.000 43.000
51.000 -16.000 22.000
51.000 -16.000 23.000
51.000 -16.000 31.000
51.000 -16.000 41.000
51.000 -16.000 43.000
51.000 -15.000 23.000
51.000 -15.000 24.000
51.000 -15.000 25.000
51.000 -15.000 32.000
51.000 -15.000 35.000
51.000 -15.000 39.000
51.000 -15.000 41.000
51.000 -15.000 43.000
51.000 -14.000 25.000
51.000 -14.000 33.000
51.000 -14.000 34.000
51.000 -14.000 36.000
51.000 -14.000 37.000
51.000 -14.000 39.000
51.000 -14.000 41.000
51.000 -13.000 26.000
51.000 -13.000 28.000
51.000 -13.000 29.000
51.000 -13.000 36.000
51.000 -13.000 37.000
51.000 -12.000 26.000
51.000 -12.000 27.000
51.000 -12.000 30.000
51.000 -12.000 33.000
51.000 -12.000 34.000
51.000 -12.000 35.000
51.000 -11.000 26.000
51.000 -11.000 27.000
51.000 -11.000 31.000
51.000 -11.000 32.000
51.000 -3.000 26.000
51.000 -3.000 27.000
51.000 -2.000 25.000
51.000 -2.000 27.000
51.000 -1.000 23.000
51.000 -1.000 24.000
51.000 -1.000 28.000
51.000 0.000 19.000
51.000 0.000 20.000
51.000 0.000 21.000
51.000 0.000 22.000
51.000 0.000 28.000
51.000 1.000 17.000
51.000 1.000 18.000
51.000 1.000 28.000
51.000 2.000 17.000
51.000 2.000 18.000
51.000 2.000 28.000
51.000 3.000 15.000
51.000 3.000 19.000
51.000 3.000 20.000
51.000 3.000 29.000
51.000 3.000 30.000
51.000 4.000 21.000
51.000 4.000 28.000
51.000 4.000 30.000
51.000 4.000 32.000
51.000 5.000 22.000
51.000 5.000 23.000
51.000 5.000 26.000
51.000 5.000 27.000
51.000 5.000 29.000
51.000 5.000 32.000
51.000 6.000 24.000
51.000 6.000 25.000
50.000 -30.000 28.000
50.000 -30.000 30.000
50.000 -29.000 27.000
50.000 -29.000 29.000
50.000 -29.000 30.000
50.000 -28.000 27.000
50.000 -28.000 31.000
50.000 -28.000 33.000
50.000 -27.000 27.000
50.000 -27.000 32.000
50.000 -27.000 33.000
50.000 -26.000 27.000
50.000 -26.000 33.000
50.000 -25.000 27.000
50.000 -25.000 33.000
50.000 -24.000 27.000
50.000 -24.000 32.000
50.000 -23.000 27.000
50.000 -23.000 32.000
50.000 -22.000 27.000
50.000 -22.000 32.000
50.000 -21.000 26.000
50.000 -21.000 31.000
50.000 -20.000 25.000
50.000 -20.000 31.000
50.000 -19.000 24.000
50.000 -19.000 31.000
50.000 -18.000 24.000
50.000 -18.000 31.000
50.000 -17.000 24.000
50.000 -17.000 31.000
50.000 -16.000 24.000
50.000 -16.000 25.000
50.000 -16.000 32.000
50.000 -16.000 39.000
50.000 -15.000 26.000
50.000 -15.000 33.000
50.000 -15.000 34.000
50.000 -15.000 35.000
50.000 -15.000 39.000
50.000 -14.000 26.000
50.000 -14.000 35.000
50.000 -14.000 39.000
50.000 -13.000 26.000
50.000 -13.000 35.000
50.000 -12.000 26.000
50.000 -12.000 28.000
50.000 -12.000 29.000
50.000 -12.000 30.000
50.000 -12.000 33.000
50.000 -12.000 34.000
50.000 -11.000 26.000
50.000 -11.000 27.000
50.000 -11.000 31.000
50.000 -11.000 32.000
50.000 -10.000 27.000
50.000 -5.000 27.000
50.000 -4.000 27.000
50.000 -3.000 26.000
50.000 -3.000 28.000
50.000 -2.000 25.000
50.000 -2.000 28.000
50.000 -1.000 23.000
50.000 -1.000 24.000
50.000 -1.000 28.000
50.000 0.000 19.000
50.000 0.000 20.000
50.000 0.000 21.000
50.000 0.000 22.000
50.000 0.000 28.000
50.000 1.000 18.000
50.000 1.000 19.000
50.000 1.000 28.000
50.000 2.000 18.000
50.000 2.000 19.000
50.000 2.000 20.000
50.000 2.000 28.000
50.000 3.000 20.000
50.000 3.000 21.000
50.000 3.000 28.000
50.000 3.000 29.000
50.000 4.000 22.000
50.000 4.000 26.000
50.000 4.000 27.000
50.000 4.000 29.000
50.000 5.000 23.000
50.000 5.000 24.000
50.000 5.000 25.000
50.000 5.000 29.000
49.000 -31.000 28.000
49.000 -30.000 28.000
49.000 -30.000 29.000
49.000 -30.000 30.000
49.000 -29.000 27.000
49.000 -29.000 31.000
49.000 -29.000 33.000
49.000 -28.000 27.000
49.000 -28.000 32.000
49.000 -28.000 33.000
49.000 -27.000 27.000
49.000 -27.000 33.000
49.000 -26.000 27.000
49.000 -26.000 33.000
49.000 -25.000 27.000
49.000 -25.000 33.000
49.000 -24.000 28.000
49.000 -24.000 32.000
49.000 -23.000 28.000
49.000 -23.000 32.000
49.000 -22.000 27.000
49.000 -22.000 31.000
49.000 -21.000 27.000
49.000 -21.000 31.000
49.000 -20.000 25.000
49.000 -20.000 26.000
49.000 -20.000 31.000
49.000 -19.000 25.000
49.000 -19.000 31.000
49.000 -18.000 25.000
49.000 -18.000 31.000
49.000 -17.000 25.000
49.000 -17.000 32.000
49.000 -16.000 26.000
49.000 -16.000 33.000
49.000 -16.000 38.000
49.000 -16.000 39.000
49.000 -15.000 26.000
49.000 -15.000 34.000
49.000 -15.000 35.000
49.000 -15.000 36.000
49.000 -15.000 37.000
49.000 -15.000 38.000
49.000 -15.000 39.000
49.000 -14.000 26.000
49.000 -14.000 36.000
49.000 -14.000 37.000
49.000 -14.000 38.000
49.000 -14.000 39.000
49.000 -13.000 26.000
49.000 -13.000 35.000
49.000 -13.000 36.000
49.000 -12.000 26.000
49.000 -12.000 28.000
49.000 -12.000 29.000
49.000 -12.000 30.000
49.000 -12.000 33.000
49.000 -12.000 34.000
49.000 -11.000 26.000
49.000 -11.000 27.000
49.000 -11.000 31.000
49.000 -11.000 32.000
49.000 -10.000 27.000
49.000 -9.000 27.000
49.000 -6.000 27.000
49.000 -5.000 27.000
49.000 -4.000 27.000
49.000 -4.000 28.000
49.000 -4.000 31.000
49.000 -3.000 26.000
49.000 -3.000 28.000
49.000 -3.000 31.000
49.000 -2.000 25.000
49.000 -2.000 29.000
49.000 -1.000 23.000
49.000 -1.000 24.000
49.000 -1.000 29.000
49.000 0.000 21.000
49.000 0.000 22.000
49.000 0.000 29.000
49.000 1.000 20.000
49.000 1.000 21.000
49.000 1.000 22.000
49.000 1.000 29.000
49.000 2.000 21.000
49.000 2.000 22.000
49.000 2.000 29.000
49.000 3.000 22.000
49.000 3.000 23.000
49.000 3.000 28.000
49.000 3.000 29.000
49.000 4.000 23.000
49.000 4.000 24.000
49.000 4.000 25.000
49.000 4.000 26.000
49.000 4.000 27.000
49.000 4.000 29.000
48.000 -32.000 28.000
48.000 -32.000 29.000
48.000 -31.000 28.000
48.000 -31.000 29.000
48.000 -31.000 30.000
48.000 -30.000 28.000
48.000 -30.000 31.000
48.000 -29.000 28.000
48.000 -29.000 32.000
48.000 -29.000 33.000
48.000 -28.000 28.000
48.000 -28.000 33.000
48.000 -27.000 28.000
48.000 -27.000 33.000
48.000 -26.000 28.000
48.000 -26.000 33.000
48.000 -25.000 28.000
48.000 -25.000 33.000
48.000 -24.000 28.000
48.000 -24.000 32.000
48.000 -23.000 28.000
48.000 -23.000 31.000
48.000 -22.000 27.000
48.000 -22.000 31.000
48.000 -21.000 27.000
48.000 -21.000 31.000
48.000 -20.000 26.000
48.000 -20.000 31.000
48.000 -19.000 26.000
48.000 -19.000 31.000
48.000 -18.000 26.000
48.000 -18.000 32.000
48.000 -17.000 26.000
48.000 -17.000 32.000
48.000 -17.000 38.000
48.000 -17.000 39.000
48.000 -16.000 27.000
48.000 -16.000 33.000
48.000 -16.000 34.000
48.000 -16.000 35.000
48.000 -16.000 36.000
48.000 -16.000 37.000
48.000 -16.000 39.000
48.000 -15.000 27.000
48.000 -15.000 39.000
48.000 -14.000 27.000
48.000 -14.000 37.000
48.000 -14.000 38.000
48.000 -13.000 27.000
48.000 -13.000 35.000
48.000 -13.000 36.000
48.000 -12.000 26.000
48.000 -12.000 30.000
48.000 -12.000 33.000
48.000 -12.000 34.000
48.000 -11.000 26.000
48.000 -11.000 28.000
48.000 -11.000 29.000
48.000 -11.000 31.000
48.000 -11.000 32.000
48.000 -10.000 26.000
48.000 -10.000 27.000
48.000 -9.000 27.000
48.000 -8.000 27.000
48.000 -7.000 27.000
48.000 -7.000 30.000
48.000 -6.000 27.000
48.000 -5.000 27.000
48.000 -5.000 28.000
48.000 -5.000 32.000
48.000 -4.000 26.000
48.000 -4.000 29.000
48.000 -4.000 31.000
48.000 -4.000 32.000
48.000 -3.000 26.000
48.000 -3.000 29.000
48.000 -3.000 30.000
48.000 -3.000 31.000
48.000 -2.000 25.000
48.000 -2.000 30.000
48.000 -2.000 31.000
48.000 -1.000 24.000
48.000 -1.000 30.000
48.000 0.000 23.000
48.000 0.000 30.000
48.000 1.000 23.000
48.000 1.000 30.000
48.000 2.000 23.000
48.000 2.000 29.000
48.000 3.000 24.000
48.000 3.000 28.000
48.000 3.000 29.000
48.000 4.000 25.000
48.000 4.000 26.000
48.000 4.000 27.000
47.000 -34.000 29.000
47.000 -33.000 28.000
47.000 -33.000 29.000
47.000 -32.000 27.000
47.000 -32.000 30.000
47.000 -32.000 31.000
47.000 -31.000 27.000
47.000 -31.000 31.000
47.000 -30.000 27.000
47.000 -30.000 31.000
47.000 -29.000 28.000
47.000 -29.000 32.000
47.000 -29.000 33.000
47.000 -28.000 28.000
47.000 -28.000 33.000
47.000 -27.000 28.000
47.000 -27.000 33.000
47.000 -26.000 28.000
47.000 -26.000 33.000
47.000 -25.000 28.000
47.000 -25.000 32.000
47.000 -25.000 33.000
47.000 -24.000 28.000
47.000 -24.000 31.000
47.000 -23.000 28.000
47.000 -23.000 31.000
47.000 -22.000 27.000
47.000 -22.000 31.000
47.000 -21.000 27.000
47.000 -21.000 31.000
47.000 -20.000 27.000
47.000 -20.000 31.000
47.000 -19.000 26.000
47.000 -19.000 32.000
47.000 -18.000 26.000
47.000 -18.000 32.000
47.000 -17.000 26.000
47.000 -17.000 33.000
47.000 -17.000 34.000
47.000 -17.000 35.000
47.000 -17.000 36.000
47.000 -17.000 37.000
47.000 -17.000 38.000
47.000 -17.000 39.000
47.000 -16.000 27.000
47.000 -16.000 39.000
47.000 -15.000 27.000
47.000 -15.000 38.000
47.000 -15.000 39.000
47.000 -14.000 27.000
47.000 -14.000 36.000
47.000 -14.000 37.000
47.000 -13.000 27.000
47.000 -13.000 34.000
47.000 -13.000 35.000
47.000 -12.000 26.000
47.000 -12.000 30.000
47.000 -12.000 33.000
47.000 -11.000 26.000
47.000 -11.000 29.000
47.000 -11.000 31.000
47.000 -11.000 32.000
47.000 -10.000 26.000
47.000 -10.000 28.000
47.000 -9.000 26.000
47.000 -9.000 27.000
47.000 -8.000 26.000
47.000 -8.000 27.000
47.000 -8.000 30.000
47.000 -7.000 27.000
47.000 -7.000 28.000
47.000 -7.000 30.000
47.000 -6.000 27.000
47.000 -6.000 28.000
47.000 -6.000 29.000
47.000 -6.000 30.000
47.000 -5.000 26.000
47.000 -5.000 29.000
47.000 -5.000 32.000
47.000 -4.000 26.000
47.000 -4.000 30.000
47.000 -4.000 31.000
47.000 -4.000 32.000
47.000 -3.000 26.000
47.000 -3.000 32.000
47.000 -2.000 25.000
47.000 -2.000 31.000
47.000 -1.000 24.000
47.000 -1.000 31.000
47.000 0.000 24.000
47.000 0.000 30.000
47.000 1.000 24.000
47.000 1.000 30.000
47.000 2.000 24.000
47.000 2.000 29.000
47.000 3.000 25.000
47.000 3.000 26.000
47.000 3.000 28.000
47.000 3.000 29.000
47.000 4.000 27.000
46.000 -35.000 29.000
46.000 -34.000 28.000
46.000 -34.000 29.000
46.000 -33.000 28.000
46.000 -33.000 30.000
46.000 -33.000 31.000
46.000 -32.000 27.000
46.000 -32.000 31.000
46.000 -31.000 27.000
46.000 -31.000 31.000
46.000 -30.000 27.000
46.000 -30.000 31.000
46.000 -29.000 28.000
46.000 -29.000 32.000
46.000 -29.000 33.000
46.000 -28.000 28.000
46.000 -28.000 33.000
46.000 -27.000 28.000
46.000 -27.000 33.000
46.000 -26.000 28.000
46.000 -26.000 33.000
46.000 -25.000 28.000
46.000 -25.000 32.000
46.000 -24.000 28.000
46.000 -24.000 31.000
46.000 -23.000 28.000
46.000 -23.000 31.000
46.000 -22.000 28.000
46.000 -22.000 31.000
46.000 -21.000 27.000
46.000 -21.000 31.000
46.000 -20.000 27.000
46.000 -20.000 31.000
46.000 -19.000 27.000
46.000 -19.000 32.000
46.000 -18.000 27.000
46.000 -18.000 33.000
46.000 -18.000 34.000
46.000 -18.000 35.000
46.000 -18.000 36.000
46.000 -18.000 37.000
46.000 -17.000 27.000
46.000 -17.000 38.000
46.000 -17.000 39.000
46.000 -16.000 27.000
46.000 -16.000 39.000
46.000 -15.000 27.000
46.000 -15.000 37.000
46.000 -15.000 38.000
46.000 -14.000 27.000
46.000 -14.000 36.000
46.000 -13.000 27.000
46.000 -13.000 34.000
46.000 -13.000 35.000
46.000 -12.000 27.000
46.000 -12.000 30.000
46.000 -12.000 33.000
46.000 -11.000 26.000
46.000 -11.000 29.000
46.000 -11.000 31.000
46.000 -11.000 32.000
46.000 -10.000 26.000
46.000 -10.000 28.000
46.000 -10.000 31.000
46.000 -9.000 26.000
46.000 -9.000 27.000
46.000 -9.000 30.000
46.000 -9.000 31.000
46.000 -8.000 26.000
46.000 -8.000 28.000
46.000 -8.000 30.000
46.000 -8.000 31.000
46.000 -7.000 26.000
46.000 -7.000 29.000
46.000 -7.000 30.000
46.000 -6.000 26.000
46.000 -6.000 30.000
46.000 -5.000 26.000
46.000 -5.000 30.000
46.000 -5.000 31.000
46.000 -5.000 32.000
46.000 -4.000 26.000
46.000 -4.000 32.000
46.000 -3.000 26.000
46.000 -3.000 32.000
46.000 -2.000 25.000
46.000 -2.000 32.000
46.000 -1.000 25.000
46.000 -1.000 31.000
46.000 0.000 25.000
46.000 0.000 31.000
46.000 1.000 25.000
46.000 1.000 30.000
46.000 2.000 25.000
46.000 2.000 26.000
46.000 2.000 30.000
46.000 3.000 27.000
46.000 3.000 28.000
46.000 3.000 29.000
45.000 -36.000 28.000
45.000 -36.000 29.000
45.000 -35.000 28.000
45.000 -35.000 29.000
45.000 -34.000 28.000
45.000 -34.000 29.000
45.000 -33.000 27.000
45.000 -33.000 30.000
45.000 -33.000 31.000
45.000 -32.000 27.000
45.000 -32.000 31.000
45.000 -31.000 27.000
45.000 -31.000 31.000
45.000 -30.000 27.000
45.000 -30.000 31.000
45.000 -29.000 28.000
45.000 -29.000 32.000
45.000 -29.000 33.000
45.000 -28.000 28.000
45.000 -28.000 33.000
45.000 -27.000 28.000
45.000 -27.000 32.000
45.000 -27.000 33.000
45.000 -26.000 28.000
45.000 -26.000 32.000
45.000 -26.000 33.000
45.000 -25.000 28.000
45.000 -25.000 31.000
45.000 -24.000 28.000
45.000 -24.000 31.000
45.000 -23.000 28.000
45.000 -23.000 31.000
45.000 -22.000 28.000
45.000 -22.000 31.000
45.000 -21.000 28.000
45.000 -21.000 31.000
45.000 -20.000 27.000
45.000 -20.000 31.000
45.000 -19.000 27.000
45.000 -19.000 31.000
45.000 -18.000 27.000
45.000 -18.000 32.000
45.000 -18.000 33.000
45.000 -18.000 34.000
45.000 -18.000 35.000
45.000 -18.000 36.000
45.000 -18.000 37.000
45.000 -17.000 27.000
45.000 -17.000 38.000
45.000 -16.000 27.000
45.000 -16.000 38.000
45.000 -15.000 27.000
45.000 -15.000 37.000
45.000 -14.000 27.000
45.000 -14.000 36.000
45.000 -13.000 27.000
45.000 -13.000 34.000
45.000 -13.000 35.000
45.000 -12.000 27.000
45.000 -12.000 33.000
45.000 -11.000 27.000
45.000 -11.000 30.000
45.000 -11.000 33.000
45.000 -10.000 27.000
45.000 -10.000 29.000
45.000 -10.000 31.000
45.000 -10.000 32.000
45.000 -9.000 26.000
45.000 -9.000 28.000
45.000 -9.000 30.000
45.000 -9.000 31.000
45.000 -8.000 26.000
45.000 -8.000 29.000
45.000 -8.000 31.000
45.000 -7.000 26.000
45.000 -7.000 31.000
45.000 -6.000 26.000
45.000 -6.000 31.000
45.000 -5.000 26.000
45.000 -5.000 32.000
45.000 -4.000 26.000
45.000 -4.000 32.000
45.000 -3.000 26.000
45.000 -3.000 32.000
45.000 -2.000 25.000
45.000 -2.000 32.000
45.000 -1.000 25.000
45.000 -1.000 31.000
45.000 0.000 25.000
45.000 0.000 31.000
45.000 1.000 25.000
45.000 1.000 30.000
45.000 2.000 26.000
45.000 2.000 30.000
45.000 3.000 27.000
45.000 3.000 28.000
45.000 3.000 29.000
44.000 -44.000 28.000
44.000 -43.000 28.000
44.000 -41.000 28.000
44.000 -40.000 28.000
44.000 -39.000 28.000
44.000 -38.000 28.000
44.000 -38.000 29.000
44.000 -37.000 28.000
44.000 -37.000 29.000
44.000 -37.000 30.000
44.000 -36.000 28.000
44.000 -36.000 30.000
44.000 -35.000 27.000
44.000 -35.000 30.000
44.000 -34.000 27.000
44.000 -34.000 30.000
44.000 -33.000 27.000
44.000 -33.000 31.000
44.000 -32.000 27.000
44.000 -32.000 31.000
44.000 -31.000 27.000
44.000 -31.000 31.000
44.000 -30.000 27.000
44.000 -30.000 31.000
44.000 -29.000 28.000
44.000 -29.000 32.000
44.000 -29.000 33.000
44.000 -28.000 28.000
44.000 -28.000 32.000
44.000 -28.000 33.000
44.000 -27.000 28.000
44.000 -27.000 31.000
44.000 -27.000 33.000
44.000 -26.000 28.000
44.000 -26.000 31.000
44.000 -26.000 33.000
44.000 -25.000 28.000
44.000 -25.000 29.000
44.000 -25.000 31.000
44.000 -24.000 28.000
44.000 -24.000 31.000
44.000 -23.000 28.000
44.000 -23.000 31.000
44.000 -22.000 28.000
44.000 -22.000 31.000
44.000 -21.000 28.000
44.000 -21.000 31.000
44.000 -20.000 28.000
44.000 -20.000 31.000
44.000 -19.000 27.000
44.000 -19.000 31.000
44.000 -18.000 27.000
44.000 -18.000 32.000
44.000 -18.000 33.000
44.000 -18.000 34.000
44.000 -18.000 35.000
44.000 -18.000 36.000
44.000 -18.000 37.000
44.000 -17.000 27.000
44.000 -17.000 38.000
44.000 -16.000 27.000
44.000 -16.000 38.000
44.000 -15.000 27.000
44.000 -15.000 37.000
44.000 -14.000 27.000
44.000 -14.000 35.000
44.000 -14.000 36.000
44.000 -13.000 27.000
44.000 -13.000 34.000
44.000 -12.000 27.000
44.000 -12.000 33.000
44.000 -11.000 27.000
44.000 -11.000 33.000
44.000 -10.000 27.000
44.000 -10.000 30.000
44.000 -10.000 32.000
44.000 -9.000 26.000
44.000 -9.000 29.000
44.000 -9.000 32.000
44.000 -8.000 26.000
44.000 -8.000 32.000
44.000 -7.000 26.000
44.000 -7.000 32.000
44.000 -6.000 26.000
44.000 -6.000 32.000
44.000 -5.000 26.000
44.000 -5.000 32.000
44.000 -4.000 26.000
44.000 -4.000 32.000
44.000 -3.000 26.000
44.000 -3.000 32.000
44.000 -2.000 26.000
44.000 -2.000 32.000
44.000 -1.000 25.000
44.000 -1.000 32.000
44.000 0.000 25.000
44.000 0.000 31.000
44.000 1.000 25.000
44.000 1.000 26.000
44.000 1.000 31.000
44.000 2.000 27.000
44.000 2.000 30.000
44.000 3.000 27.000
44.000 3.000 28.000
44.000 3.000 29.000
44.000 3.000 30.000
43.000 -44.000 28.000
43.000 -43.000 27.000
43.000 -43.000 28.000
43.000 -42.000 27.000
43.000 -42.000 28.000
43.000 -41.000 27.000
43.000 -41.000 28.000
43.000 -40.000 27.000
43.000 -40.000 28.000
43.000 -39.000 27.000
43.000 -39.000 29.000
43.000 -38.000 27.000
43.000 -38.000 30.000
43.000 -37.000 27.000
43.000 -37.000 30.000
43.000 -36.000 27.000
43.000 -36.000 30.000
43.000 -35.000 27.000
43.000 -35.000 30.000
43.000 -34.000 27.000
43.000 -34.000 30.000
43.000 -33.000 27.000
43.000 -33.000 31.000
43.000 -32.000 27.000
43.000 -32.000 31.000
43.000 -31.000 27.000
43.000 -31.000 31.000
43.000 -30.000 28.000
43.000 -30.000 31.000
43.000 -29.000 28.000
43.000 -29.000 31.000
43.000 -28.000 28.000
43.000 -28.000 31.000
43.000 -27.000 28.000
43.000 -27.000 29.000
43.000 -27.000 30.000
43.000 -27.000 31.000
43.000 -26.000 29.000
43.000 -26.000 30.000
43.000 -26.000 31.000
43.000 -25.000 30.000
43.000 -24.000 29.000
43.000 -24.000 30.000
43.000 -23.000 28.000
43.000 -23.000 30.000
43.000 -22.000 28.000
43.000 -22.000 30.000
43.000 -21.000 28.000
43.000 -21.000 31.000
43.000 -20.000 28.000
43.000 -20.000 31.000
43.000 -19.000 28.000
43.000 -19.000 31.000
43.000 -18.000 27.000
43.000 -18.000 32.000
43.000 -18.000 33.000
43.000 -18.000 34.000
43.000 -18.000 35.000
43.000 -18.000 36.000
43.000 -17.000 27.000
43.000 -17.000 37.000
43.000 -16.000 27.000
43.000 -16.000 37.000
43.000 -15.000 27.000
43.000 -15.000 36.000
43.000 -14.000 27.000
43.000 -14.000 35.000
43.000 -14.000 36.000
43.000 -13.000 27.000
43.000 -13.000 34.000
43.000 -12.000 27.000
43.000 -12.000 33.000
43.000 -11.000 27.000
43.000 -11.000 33.000
43.000 -10.000 26.000
43.000 -10.000 32.000
43.000 -9.000 26.000
43.000 -9.000 32.000
43.000 -8.000 26.000
43.000 -8.000 32.000
43.000 -7.000 26.000
43.000 -7.000 32.000
43.000 -6.000 26.000
43.000 -6.000 32.000
43.000 -5.000 26.000
43.000 -5.000 32.000
43.000 -4.000 26.000
43.000 -4.000 32.000
43.000 -3.000 26.000
43.000 -3.000 32.000
43.000 -2.000 26.000
43.000 -2.000 32.000
43.000 -1.000 26.000
43.000 -1.000 32.000
43.000 0.000 26.000
43.000 0.000 32.000
43.000 1.000 26.000
43.000 1.000 31.000
43.000 2.000 27.000
43.000 2.000 31.000
43.000 3.000 28.000
43.000 3.000 29.000
43.000 3.000 30.000
43.000 4.000 30.000
42.000 -44.000 28.000
42.000 -43.000 27.000
42.000 -43.000 28.000
42.000 -42.000 27.000
42.000 -42.000 28.000
42.000 -41.000 27.000
42.000 -41.000 28.000
42.000 -40.000 27.000
42.000 -40.000 28.000
42.000 -39.000 27.000
42.000 -39.000 29.000
42.000 -38.000 27.000
42.000 -38.000 29.000
42.000 -38.000 30.000
42.000 -37.000 27.000
42.000 -37.000 29.000
42.000 -37.000 30.000
42.000 -36.000 27.000
42.000 -36.000 29.000
42.000 -36.000 30.000
42.000 -35.000 27.000
42.000 -35.000 29.000
42.000 -35.000 30.000
42.000 -34.000 27.000
42.000 -34.000 29.000
42.000 -34.000 30.000
42.000 -33.000 28.000
42.000 -33.000 29.000
42.000 -33.000 31.000
42.000 -32.000 28.000
42.000 -32.000 31.000
42.000 -31.000 28.000
42.000 -31.000 30.000
42.000 -31.000 31.000
42.000 -30.000 28.000
42.000 -30.000 30.000
42.000 -30.000 31.000
42.000 -29.000 29.000
42.000 -29.000 30.000
42.000 -29.000 31.000
42.000 -28.000 29.000
42.000 -28.000 30.000
42.000 -28.000 31.000
42.000 -27.000 31.000
42.000 -25.000 30.000
42.000 -24.000 29.000
42.000 -24.000 30.000
42.000 -23.000 29.000
42.000 -23.000 30.000
42.000 -22.000 28.000
42.000 -22.000 29.000
42.000 -22.000 30.000
42.000 -21.000 28.000
42.000 -21.000 30.000
42.000 -20.000 28.000
42.000 -20.000 30.000
42.000 -19.000 28.000
42.000 -19.000 31.000
42.000 -18.000 28.000
42.000 -18.000 32.000
42.000 -18.000 33.000
42.000 -18.000 34.000
42.000 -18.000 35.000
42.000 -17.000 27.000
42.000 -17.000 36.000
42.000 -16.000 27.000
42.000 -16.000 36.000
42.000 -15.000 27.000
42.000 -15.000 35.000
42.000 -15.000 36.000
42.000 -14.000 27.000
42.000 -14.000 34.000
42.000 -14.000 36.000
42.000 -13.000 27.000
42.000 -13.000 34.000
42.000 -12.000 27.000
42.000 -12.000 33.000
42.000 -11.000 27.000
42.000 -11.000 28.000
42.000 -11.000 33.000
42.000 -10.000 27.000
42.000 -10.000 31.000
42.000 -10.000 33.000
42.000 -9.000 26.000
42.000 -9.000 31.000
42.000 -9.000 32.000
42.000 -8.000 26.000
42.000 -8.000 31.000
42.000 -8.000 32.000
42.000 -7.000 26.000
42.000 -7.000 31.000
42.000 -7.000 32.000
42.000 -6.000 26.000
42.000 -6.000 32.000
42.000 -5.000 26.000
42.000 -5.000 32.000
42.000 -4.000 26.000
42.000 -4.000 32.000
42.000 -3.000 26.000
42.000 -3.000 32.000
42.000 -2.000 26.000
42.000 -2.000 32.000
42.000 -1.000 26.000
42.000 -1.000 32.000
42.000 0.000 26.000
42.000 0.000 32.000
42.000 1.000 26.000
42.000 1.000 31.000
42.000 2.000 27.000
42.000 2.000 31.000
42.000 3.000 28.000
42.000 3.000 29.000
42.000 3.000 30.000
42.000 4.000 28.000
42.000 4.000 30.000
42.000 5.000 28.000
41.000 -41.000 28.000
41.000 -40.000 27.000
41.000 -40.000 28.000
41.000 -39.000 27.000
41.000 -39.000 28.000
41.000 -38.000 27.000
41.000 -38.000 28.000
41.000 -38.000 30.000
41.000 -37.000 27.000
41.000 -37.000 28.000
41.000 -37.000 30.000
41.000 -36.000 28.000
41.000 -36.000 30.000
41.000 -35.000 28.000
41.000 -35.000 30.000
41.000 -34.000 28.000
41.000 -34.000 30.000
41.000 -33.000 28.000
41.000 -33.000 30.000
41.000 -32.000 29.000
41.000 -32.000 30.000
41.000 -32.000 31.000
41.000 -31.000 29.000
41.000 -31.000 31.000
41.000 -30.000 29.000
41.000 -30.000 31.000
41.000 -29.000 31.000
41.000 -23.000 30.000
41.000 -22.000 30.000
41.000 -21.000 29.000
41.000 -21.000 30.000
41.000 -20.000 28.000
41.000 -20.000 29.000
41.000 -20.000 30.000
41.000 -19.000 28.000
41.000 -19.000 29.000
41.000 -19.000 30.000
41.000 -18.000 28.000
41.000 -18.000 30.000
41.000 -18.000 31.000
41.000 -18.000 33.000
41.000 -18.000 34.000
41.000 -18.000 35.000
41.000 -17.000 28.000
41.000 -17.000 30.000
41.000 -17.000 32.000
41.000 -17.000 34.000
41.000 -17.000 35.000
41.000 -16.000 28.000
41.000 -16.000 30.000
41.000 -16.000 32.000
41.000 -16.000 33.000
41.000 -16.000 35.000
41.000 -15.000 27.000
41.000 -15.000 30.000
41.000 -15.000 32.000
41.000 -15.000 33.000
41.000 -15.000 34.000
41.000 -14.000 27.000
41.000 -14.000 32.000
41.000 -14.000 33.000
41.000 -14.000 34.000
41.000 -13.000 27.000
41.000 -13.000 32.000
41.000 -13.000 33.000
41.000 -13.000 34.000
41.000 -12.000 27.000
41.000 -12.000 28.000
41.000 -12.000 30.000
41.000 -12.000 34.000
41.000 -11.000 27.000
41.000 -11.000 29.000
41.000 -11.000 31.000
41.000 -11.000 33.000
41.000 -10.000 26.000
41.000 -10.000 28.000
41.000 -10.000 29.000
41.000 -10.000 30.000
41.000 -10.000 32.000
41.000 -10.000 33.000
41.000 -9.000 26.000
41.000 -9.000 30.000
41.000 -9.000 32.000
41.000 -8.000 26.000
41.000 -8.000 30.000
41.000 -7.000 26.000
41.000 -7.000 30.000
41.000 -6.000 26.000
41.000 -6.000 31.000
41.000 -5.000 26.000
41.000 -5.000 31.000
41.000 -4.000 26.000
41.000 -4.000 32.000
41.000 -3.000 26.000
41.000 -3.000 32.000
41.000 -2.000 26.000
41.000 -2.000 32.000
41.000 -1.000 26.000
41.000 -1.000 32.000
41.000 0.000 26.000
41.000 0.000 32.000
41.000 1.000 26.000
41.000 1.000 28.000
41.000 1.000 29.000
41.000 1.000 31.000
41.000 2.000 27.000
41.000 2.000 28.000
41.000 2.000 29.000
41.000 2.000 31.000
41.000 3.000 28.000
41.000 3.000 29.000
41.000 3.000 31.000
41.000 4.000 28.000
41.000 4.000 29.000
41.000 4.000 31.000
41.000 5.000 28.000
41.000 5.000 30.000
41.000 5.000 31.000
41.000 6.000 28.000
40.000 -18.000 29.000
40.000 -18.000 33.000
40.000 -18.000 35.000
40.000 -17.000 29.000
40.000 -17.000 31.000
40.000 -17.000 33.000
40.000 -17.000 35.000
40.000 -16.000 28.000
40.000 -16.000 29.000
40.000 -16.000 31.000
40.000 -16.000 34.000
40.000 -15.000 28.000
40.000 -15.000 29.000
40.000 -15.000 31.000
40.000 -15.000 34.000
40.000 -14.000 27.000
40.000 -14.000 28.000
40.000 -14.000 29.000
40.000 -14.000 30.000
40.000 -14.000 31.000
40.000 -14.000 34.000
40.000 -13.000 27.000
40.000 -13.000 28.000
40.000 -13.000 29.000
40.000 -13.000 30.000
40.000 -13.000 31.000
40.000 -13.000 34.000
40.000 -12.000 27.000
40.000 -12.000 28.000
40.000 -12.000 29.000
40.000 -12.000 31.000
40.000 -12.000 32.000
40.000 -12.000 33.000
40.000 -12.000 34.000
40.000 -11.000 27.000
40.000 -11.000 30.000
40.000 -11.000 32.000
40.000 -11.000 33.000
40.000 -10.000 26.000
40.000 -10.000 27.000
40.000 -10.000 30.000
40.000 -9.000 26.000
40.000 -9.000 28.000
40.000 -9.000 29.000
40.000 -9.000 30.000
40.000 -8.000 26.000
40.000 -8.000 30.000
40.000 -7.000 26.000
40.000 -7.000 30.000
40.000 -6.000 26.000
40.000 -6.000 30.000
40.000 -5.000 26.000
40.000 -5.000 31.000
40.000 -4.000 26.000
40.000 -4.000 31.000
40.000 -3.000 27.000
40.000 -3.000 32.000
40.000 -2.000 27.000
40.000 -2.000 32.000
40.000 -1.000 26.000
40.000 -1.000 32.000
40.000 0.000 26.000
40.000 0.000 28.000
40.000 0.000 29.000
40.000 0.000 32.000
40.000 1.000 26.000
40.000 1.000 27.000
40.000 1.000 30.000
40.000 1.000 31.000
40.000 2.000 30.000
40.000 2.000 31.000
40.000 3.000 30.000
40.000 3.000 31.000
40.000 4.000 28.000
40.000 4.000 30.000
40.000 4.000 31.000
40.000 5.000 28.000
40.000 5.000 30.000
40.000 5.000 31.000
40.000 6.000 28.000
40.000 7.000 28.000
39.000 -16.000 31.000
39.000 -15.000 31.000
39.000 -14.000 27.000
39.000 -14.000 31.000
39.000 -13.000 27.000
39.000 -13.000 31.000
39.000 -12.000 27.000
39.000 -12.000 31.000
39.000 -11.000 27.000
39.000 -10.000 26.000
39.000 -10.000 27.000
39.000 -9.000 26.000
39.000 -9.000 27.000
39.000 -8.000 26.000
39.000 -8.000 28.000
39.000 -8.000 29.000
39.000 -7.000 26.000
39.000 -7.000 29.000
39.000 -6.000 26.000
39.000 -6.000 29.000
39.000 -5.000 26.000
39.000 -5.000 30.000
39.000 -4.000 27.000
39.000 -4.000 31.000
39.000 -3.000 27.000
39.000 -3.000 32.000
39.000 -2.000 27.000
39.000 -2.000 28.000
39.000 -2.000 32.000
39.000 -1.000 27.000
39.000 -1.000 28.000
39.000 -1.000 29.000
39.000 -1.000 32.000
39.000 0.000 27.000
39.000 0.000 29.000
39.000 0.000 32.000
39.000 1.000 30.000
39.000 1.000 31.000
39.000 2.000 31.000
39.000 5.000 28.000
39.000 6.000 28.000
39.000 7.000 28.000
38.000 -15.000 31.000
38.000 -14.000 31.000
38.000 -13.000 31.000
38.000 -12.000 27.000
38.000 -11.000 27.000
38.000 -10.000 27.000
38.000 -9.000 26.000
38.000 -9.000 27.000
38.000 -8.000 26.000
38.000 -8.000 27.000
38.000 -7.000 26.000
38.000 -7.000 28.000
38.000 -7.000 29.000
38.000 -6.000 26.000
38.000 -6.000 28.000
38.000 -6.000 29.000
38.000 -5.000 27.000
38.000 -5.000 28.000
38.000 -5.000 29.000
38.000 -4.000 27.000
38.000 -4.000 28.000
38.000 -4.000 29.000
38.000 -4.000 30.000
38.000 -4.000 31.000
38.000 -3.000 27.000
38.000 -3.000 28.000
38.000 -3.000 29.000
38.000 -3.000 30.000
38.000 -3.000 32.000
38.000 -2.000 27.000
38.000 -2.000 29.000
38.000 -2.000 30.000
38.000 -2.000 32.000
38.000 -1.000 30.000
38.000 -1.000 32.000
38.000 0.000 30.000
38.000 0.000 31.000
38.000 1.000 31.000
38.000 6.000 28.000
38.000 7.000 28.000
37.000 -7.000 27.000
37.000 -6.000 27.000
37.000 -5.000 27.000
37.000 -4.000 31.000
37.000 -3.000 31.000
37.000 -3.000 32.000
37.000 -2.000 31.000
37.000 -2.000 32.000
37.000 -1.000 31.000
37.000 0.000 31.000
36.000 -3.000 31.000
36.000 -3.000 32.000
36.000 -2.000 31.000
36.000 -2.000 32.000
36.000 -1.000 31.000
